<mxfile host="app.diagrams.net" agent="Mozilla/5.0 (Windows NT 10.0; Win64; x64) AppleWebKit/537.36 (KHTML, like Gecko) Chrome/134.0.0.0 Safari/537.36" version="26.1.2">
  <diagram name="Página-1" id="K5eOA4L-gDZK-XUdb7QI">
    <mxGraphModel dx="3781" dy="2480" grid="1" gridSize="10" guides="1" tooltips="1" connect="1" arrows="1" fold="1" page="1" pageScale="1" pageWidth="827" pageHeight="1169" math="0" shadow="0">
      <root>
        <mxCell id="0" />
        <mxCell id="1" parent="0" />
        <mxCell id="xORFpnPC-fu5SrFgAWwJ-1" value="Doenças Cardiacas" style="rounded=0;whiteSpace=wrap;html=1;fontStyle=0" parent="1" vertex="1">
          <mxGeometry x="465" y="711" width="120" height="60" as="geometry" />
        </mxCell>
        <mxCell id="xORFpnPC-fu5SrFgAWwJ-2" value="&amp;nbsp;Antropometria" style="ellipse;whiteSpace=wrap;html=1;fontStyle=0" parent="1" vertex="1">
          <mxGeometry x="372" y="510" width="120" height="80" as="geometry" />
        </mxCell>
        <mxCell id="xORFpnPC-fu5SrFgAWwJ-4" value="Sexo" style="ellipse;whiteSpace=wrap;html=1;fontStyle=0" parent="1" vertex="1">
          <mxGeometry x="679" y="790" width="90" height="45" as="geometry" />
        </mxCell>
        <mxCell id="xORFpnPC-fu5SrFgAWwJ-8" value="Idade" style="ellipse;whiteSpace=wrap;html=1;fontStyle=0" parent="1" vertex="1">
          <mxGeometry x="808" y="718" width="90" height="45" as="geometry" />
        </mxCell>
        <mxCell id="xORFpnPC-fu5SrFgAWwJ-9" value="Peso" style="ellipse;whiteSpace=wrap;html=1;fontStyle=0" parent="1" vertex="1">
          <mxGeometry x="268" y="510" width="90" height="45" as="geometry" />
        </mxCell>
        <mxCell id="xORFpnPC-fu5SrFgAWwJ-10" value="Altura" style="ellipse;whiteSpace=wrap;html=1;fontStyle=0" parent="1" vertex="1">
          <mxGeometry x="369" y="607" width="90" height="45" as="geometry" />
        </mxCell>
        <mxCell id="xORFpnPC-fu5SrFgAWwJ-12" value="Medida da Cintura" style="ellipse;whiteSpace=wrap;html=1;fontStyle=0" parent="1" vertex="1">
          <mxGeometry x="330" y="453" width="90" height="45" as="geometry" />
        </mxCell>
        <mxCell id="xORFpnPC-fu5SrFgAWwJ-13" value="IMC" style="ellipse;whiteSpace=wrap;html=1;fontStyle=0" parent="1" vertex="1">
          <mxGeometry x="285" y="566" width="90" height="45" as="geometry" />
        </mxCell>
        <mxCell id="xORFpnPC-fu5SrFgAWwJ-17" value="Medida do Quadril" style="ellipse;whiteSpace=wrap;html=1;fontStyle=0" parent="1" vertex="1">
          <mxGeometry x="430" y="447" width="90" height="45" as="geometry" />
        </mxCell>
        <mxCell id="xORFpnPC-fu5SrFgAWwJ-19" value="" style="endArrow=none;html=1;rounded=0;exitX=1;exitY=0.5;exitDx=0;exitDy=0;fontStyle=0;entryX=0;entryY=0;entryDx=0;entryDy=0;" parent="1" source="xORFpnPC-fu5SrFgAWwJ-2" target="xORFpnPC-fu5SrFgAWwJ-1" edge="1">
          <mxGeometry width="50" height="50" relative="1" as="geometry">
            <mxPoint x="262" y="826" as="sourcePoint" />
            <mxPoint x="465" y="710" as="targetPoint" />
          </mxGeometry>
        </mxCell>
        <mxCell id="xORFpnPC-fu5SrFgAWwJ-23" value="" style="endArrow=none;html=1;rounded=0;entryX=0.5;entryY=0;entryDx=0;entryDy=0;exitX=0.5;exitY=1;exitDx=0;exitDy=0;fontStyle=0" parent="1" source="xORFpnPC-fu5SrFgAWwJ-31" target="xORFpnPC-fu5SrFgAWwJ-4" edge="1">
          <mxGeometry width="50" height="50" relative="1" as="geometry">
            <mxPoint x="54" y="826" as="sourcePoint" />
            <mxPoint x="104" y="776" as="targetPoint" />
          </mxGeometry>
        </mxCell>
        <mxCell id="xORFpnPC-fu5SrFgAWwJ-27" value="Hábitos Alimentares" style="ellipse;whiteSpace=wrap;html=1;fontStyle=0" parent="1" vertex="1">
          <mxGeometry x="127" y="543" width="120" height="80" as="geometry" />
        </mxCell>
        <mxCell id="xORFpnPC-fu5SrFgAWwJ-28" value="" style="endArrow=none;html=1;rounded=0;entryX=1;entryY=0.5;entryDx=0;entryDy=0;exitX=0;exitY=0.5;exitDx=0;exitDy=0;fontStyle=0" parent="1" source="xORFpnPC-fu5SrFgAWwJ-1" target="xORFpnPC-fu5SrFgAWwJ-27" edge="1">
          <mxGeometry width="50" height="50" relative="1" as="geometry">
            <mxPoint x="402" y="676" as="sourcePoint" />
            <mxPoint x="452" y="626" as="targetPoint" />
          </mxGeometry>
        </mxCell>
        <mxCell id="xORFpnPC-fu5SrFgAWwJ-29" value="Condições Físicas e Mentais" style="ellipse;whiteSpace=wrap;html=1;fontStyle=0" parent="1" vertex="1">
          <mxGeometry x="465" y="176" width="120" height="80" as="geometry" />
        </mxCell>
        <mxCell id="xORFpnPC-fu5SrFgAWwJ-30" value="Genética" style="ellipse;whiteSpace=wrap;html=1;fontStyle=0" parent="1" vertex="1">
          <mxGeometry x="622" y="475" width="120" height="80" as="geometry" />
        </mxCell>
        <mxCell id="xORFpnPC-fu5SrFgAWwJ-31" value="Características do indivíduo" style="ellipse;whiteSpace=wrap;html=1;fontStyle=0" parent="1" vertex="1">
          <mxGeometry x="664" y="700.5" width="120" height="80" as="geometry" />
        </mxCell>
        <mxCell id="xORFpnPC-fu5SrFgAWwJ-32" value="Hábitos de Saúde" style="ellipse;whiteSpace=wrap;html=1;fontStyle=0" parent="1" vertex="1">
          <mxGeometry x="748" y="983" width="120" height="80" as="geometry" />
        </mxCell>
        <mxCell id="xORFpnPC-fu5SrFgAWwJ-33" value="Condições Socio-Econômicas" style="ellipse;whiteSpace=wrap;html=1;fontStyle=0" parent="1" vertex="1">
          <mxGeometry x="119" y="976" width="120" height="80" as="geometry" />
        </mxCell>
        <mxCell id="xORFpnPC-fu5SrFgAWwJ-34" value="" style="endArrow=none;html=1;rounded=0;entryX=0;entryY=1;entryDx=0;entryDy=0;exitX=0.5;exitY=0;exitDx=0;exitDy=0;fontStyle=0" parent="1" source="xORFpnPC-fu5SrFgAWwJ-33" target="xORFpnPC-fu5SrFgAWwJ-1" edge="1">
          <mxGeometry width="50" height="50" relative="1" as="geometry">
            <mxPoint x="412" y="906" as="sourcePoint" />
            <mxPoint x="462" y="856" as="targetPoint" />
          </mxGeometry>
        </mxCell>
        <mxCell id="xORFpnPC-fu5SrFgAWwJ-35" value="" style="endArrow=none;html=1;rounded=0;entryX=0.5;entryY=1;entryDx=0;entryDy=0;exitX=0.5;exitY=0;exitDx=0;exitDy=0;fontStyle=0" parent="1" source="xORFpnPC-fu5SrFgAWwJ-1" target="xORFpnPC-fu5SrFgAWwJ-29" edge="1">
          <mxGeometry width="50" height="50" relative="1" as="geometry">
            <mxPoint x="562" y="696" as="sourcePoint" />
            <mxPoint x="612" y="646" as="targetPoint" />
          </mxGeometry>
        </mxCell>
        <mxCell id="xORFpnPC-fu5SrFgAWwJ-36" value="" style="endArrow=none;html=1;rounded=0;entryX=1;entryY=1;entryDx=0;entryDy=0;exitX=0.5;exitY=0;exitDx=0;exitDy=0;fontStyle=0" parent="1" source="xORFpnPC-fu5SrFgAWwJ-32" target="xORFpnPC-fu5SrFgAWwJ-1" edge="1">
          <mxGeometry width="50" height="50" relative="1" as="geometry">
            <mxPoint x="752" y="956" as="sourcePoint" />
            <mxPoint x="612" y="1116" as="targetPoint" />
          </mxGeometry>
        </mxCell>
        <mxCell id="xORFpnPC-fu5SrFgAWwJ-37" value="" style="endArrow=none;html=1;rounded=0;entryX=1;entryY=0.5;entryDx=0;entryDy=0;exitX=0;exitY=0.5;exitDx=0;exitDy=0;fontStyle=0" parent="1" source="xORFpnPC-fu5SrFgAWwJ-31" target="xORFpnPC-fu5SrFgAWwJ-1" edge="1">
          <mxGeometry width="50" height="50" relative="1" as="geometry">
            <mxPoint x="622" y="866" as="sourcePoint" />
            <mxPoint x="672" y="816" as="targetPoint" />
          </mxGeometry>
        </mxCell>
        <mxCell id="xORFpnPC-fu5SrFgAWwJ-39" value="" style="endArrow=none;html=1;rounded=0;entryX=1;entryY=0.5;entryDx=0;entryDy=0;exitX=0;exitY=0.5;exitDx=0;exitDy=0;fontStyle=0" parent="1" source="xORFpnPC-fu5SrFgAWwJ-8" target="xORFpnPC-fu5SrFgAWwJ-31" edge="1">
          <mxGeometry width="50" height="50" relative="1" as="geometry">
            <mxPoint x="764" y="818.5" as="sourcePoint" />
            <mxPoint x="814" y="768.5" as="targetPoint" />
          </mxGeometry>
        </mxCell>
        <mxCell id="xORFpnPC-fu5SrFgAWwJ-40" value="" style="endArrow=none;html=1;rounded=0;entryX=0;entryY=0.5;entryDx=0;entryDy=0;exitX=1;exitY=0;exitDx=0;exitDy=0;fontStyle=0" parent="1" source="xORFpnPC-fu5SrFgAWwJ-1" target="xORFpnPC-fu5SrFgAWwJ-30" edge="1">
          <mxGeometry width="50" height="50" relative="1" as="geometry">
            <mxPoint x="582" y="646" as="sourcePoint" />
            <mxPoint x="612" y="676" as="targetPoint" />
          </mxGeometry>
        </mxCell>
        <mxCell id="xORFpnPC-fu5SrFgAWwJ-41" value="Autoavaliação" style="ellipse;whiteSpace=wrap;html=1;fontStyle=0" parent="1" vertex="1">
          <mxGeometry x="465" y="855" width="120" height="80" as="geometry" />
        </mxCell>
        <mxCell id="xORFpnPC-fu5SrFgAWwJ-42" value="" style="endArrow=none;html=1;rounded=0;entryX=0.5;entryY=1;entryDx=0;entryDy=0;exitX=0.5;exitY=0;exitDx=0;exitDy=0;fontStyle=0" parent="1" source="xORFpnPC-fu5SrFgAWwJ-41" target="xORFpnPC-fu5SrFgAWwJ-1" edge="1">
          <mxGeometry width="50" height="50" relative="1" as="geometry">
            <mxPoint x="462" y="1066" as="sourcePoint" />
            <mxPoint x="512" y="1016" as="targetPoint" />
          </mxGeometry>
        </mxCell>
        <mxCell id="xORFpnPC-fu5SrFgAWwJ-46" value="Escolaridade" style="ellipse;whiteSpace=wrap;html=1;fontStyle=0" parent="1" vertex="1">
          <mxGeometry x="259" y="1051" width="90" height="45" as="geometry" />
        </mxCell>
        <mxCell id="xORFpnPC-fu5SrFgAWwJ-51" value="Posse de plano de saúde" style="ellipse;whiteSpace=wrap;html=1;fontStyle=0" parent="1" vertex="1">
          <mxGeometry x="13" y="1051" width="90" height="45" as="geometry" />
        </mxCell>
        <mxCell id="xORFpnPC-fu5SrFgAWwJ-52" value="Trabalho" style="ellipse;whiteSpace=wrap;html=1;fontStyle=0" parent="1" vertex="1">
          <mxGeometry x="134" y="1089" width="90" height="45" as="geometry" />
        </mxCell>
        <mxCell id="xORFpnPC-fu5SrFgAWwJ-53" value="Local de Moradia" style="ellipse;whiteSpace=wrap;html=1;fontStyle=0" parent="1" vertex="1">
          <mxGeometry x="269" y="993.5" width="90" height="45" as="geometry" />
        </mxCell>
        <mxCell id="xORFpnPC-fu5SrFgAWwJ-54" value="Acesso a Serviços Médicos" style="ellipse;whiteSpace=wrap;html=1;fontStyle=0" parent="1" vertex="1">
          <mxGeometry x="-1" y="993.5" width="90" height="45" as="geometry" />
        </mxCell>
        <mxCell id="xORFpnPC-fu5SrFgAWwJ-60" value="Consumo de drogas lícitas e ilícitas" style="ellipse;whiteSpace=wrap;html=1;fontStyle=0" parent="1" vertex="1">
          <mxGeometry x="930" y="1000.5" width="90" height="45" as="geometry" />
        </mxCell>
        <mxCell id="xORFpnPC-fu5SrFgAWwJ-65" value="Pratica Atividades Físicas" style="ellipse;whiteSpace=wrap;html=1;fontStyle=0" parent="1" vertex="1">
          <mxGeometry x="703" y="1092" width="90" height="45" as="geometry" />
        </mxCell>
        <mxCell id="xORFpnPC-fu5SrFgAWwJ-74" value="Uso de contraceptivos" style="ellipse;whiteSpace=wrap;html=1;fontStyle=0" parent="1" vertex="1">
          <mxGeometry x="597" y="999.5" width="90" height="45" as="geometry" />
        </mxCell>
        <mxCell id="xORFpnPC-fu5SrFgAWwJ-75" value="Dieta" style="ellipse;whiteSpace=wrap;html=1;fontStyle=0" parent="1" vertex="1">
          <mxGeometry x="-38" y="560.5" width="90" height="45" as="geometry" />
        </mxCell>
        <mxCell id="xORFpnPC-fu5SrFgAWwJ-79" value="Ingestão de Alimentos" style="ellipse;whiteSpace=wrap;html=1;fontStyle=0" parent="1" vertex="1">
          <mxGeometry x="-38" y="639" width="90" height="45" as="geometry" />
        </mxCell>
        <mxCell id="xORFpnPC-fu5SrFgAWwJ-82" value="Ingestão de Bebidas" style="ellipse;whiteSpace=wrap;html=1;fontStyle=0" parent="1" vertex="1">
          <mxGeometry x="-38" y="479" width="90" height="45" as="geometry" />
        </mxCell>
        <mxCell id="xORFpnPC-fu5SrFgAWwJ-83" value="Saúde Mental" style="ellipse;whiteSpace=wrap;html=1;fontStyle=0" parent="1" vertex="1">
          <mxGeometry x="322" y="194" width="90" height="45" as="geometry" />
        </mxCell>
        <mxCell id="xORFpnPC-fu5SrFgAWwJ-85" value="Deficiências" style="ellipse;whiteSpace=wrap;html=1;fontStyle=0" parent="1" vertex="1">
          <mxGeometry x="646" y="192" width="90" height="45" as="geometry" />
        </mxCell>
        <mxCell id="xORFpnPC-fu5SrFgAWwJ-86" value="Aceitação do Tratamento Prescrito" style="ellipse;whiteSpace=wrap;html=1;fontStyle=0" parent="1" vertex="1">
          <mxGeometry x="627" y="265" width="90" height="45" as="geometry" />
        </mxCell>
        <mxCell id="xORFpnPC-fu5SrFgAWwJ-87" value="Excesso de Aparelhos Eletrônicos" style="ellipse;whiteSpace=wrap;html=1;fontStyle=0" parent="1" vertex="1">
          <mxGeometry x="480" y="68" width="90" height="45" as="geometry" />
        </mxCell>
        <mxCell id="xORFpnPC-fu5SrFgAWwJ-88" value="Gravidez" style="ellipse;whiteSpace=wrap;html=1;fontStyle=0" parent="1" vertex="1">
          <mxGeometry x="537" y="310" width="90" height="45" as="geometry" />
        </mxCell>
        <mxCell id="xORFpnPC-fu5SrFgAWwJ-89" value="Antecedentes Familiares " style="ellipse;whiteSpace=wrap;html=1;fontStyle=0" parent="1" vertex="1">
          <mxGeometry x="788" y="599" width="90" height="45" as="geometry" />
        </mxCell>
        <mxCell id="xORFpnPC-fu5SrFgAWwJ-91" value="Doenças Crônicas" style="ellipse;whiteSpace=wrap;html=1;fontStyle=0" parent="1" vertex="1">
          <mxGeometry x="582" y="113" width="90" height="45" as="geometry" />
        </mxCell>
        <mxCell id="xORFpnPC-fu5SrFgAWwJ-106" value="Consumo de Frutas e Hortaliças" style="ellipse;whiteSpace=wrap;html=1;fontStyle=0" parent="1" vertex="1">
          <mxGeometry x="-188" y="770" width="90" height="45" as="geometry" />
        </mxCell>
        <mxCell id="xORFpnPC-fu5SrFgAWwJ-111" value="Bom" style="ellipse;whiteSpace=wrap;html=1;fontStyle=0" parent="1" vertex="1">
          <mxGeometry x="351" y="872.5" width="90" height="45" as="geometry" />
        </mxCell>
        <mxCell id="xORFpnPC-fu5SrFgAWwJ-112" value="Muito Bom" style="ellipse;whiteSpace=wrap;html=1;fontStyle=0" parent="1" vertex="1">
          <mxGeometry x="381" y="935" width="90" height="45" as="geometry" />
        </mxCell>
        <mxCell id="xORFpnPC-fu5SrFgAWwJ-113" value="Regular" style="ellipse;whiteSpace=wrap;html=1;fontStyle=0" parent="1" vertex="1">
          <mxGeometry x="480" y="970" width="90" height="45" as="geometry" />
        </mxCell>
        <mxCell id="xORFpnPC-fu5SrFgAWwJ-114" value="Ruim" style="ellipse;whiteSpace=wrap;html=1;fontStyle=0" parent="1" vertex="1">
          <mxGeometry x="581" y="935" width="90" height="45" as="geometry" />
        </mxCell>
        <mxCell id="xORFpnPC-fu5SrFgAWwJ-115" value="Muito Ruim" style="ellipse;whiteSpace=wrap;html=1;fontStyle=0" parent="1" vertex="1">
          <mxGeometry x="611" y="872.5" width="90" height="45" as="geometry" />
        </mxCell>
        <mxCell id="xORFpnPC-fu5SrFgAWwJ-122" value="Consumo de Ultra processados ou FastFoods" style="ellipse;whiteSpace=wrap;html=1;fontStyle=0" parent="1" vertex="1">
          <mxGeometry x="-242" y="604.5" width="90" height="45" as="geometry" />
        </mxCell>
        <mxCell id="xORFpnPC-fu5SrFgAWwJ-125" value="Pré-Disposição" style="ellipse;whiteSpace=wrap;html=1;fontStyle=0" parent="1" vertex="1">
          <mxGeometry x="788" y="394" width="90" height="45" as="geometry" />
        </mxCell>
        <mxCell id="xORFpnPC-fu5SrFgAWwJ-129" value="Bebidas com açucar" style="ellipse;whiteSpace=wrap;html=1;fontStyle=0" parent="1" vertex="1">
          <mxGeometry x="44" y="421" width="90" height="45" as="geometry" />
        </mxCell>
        <mxCell id="xORFpnPC-fu5SrFgAWwJ-131" value="Consumo de Carnes Vermelhas" style="ellipse;whiteSpace=wrap;html=1;fontStyle=0" parent="1" vertex="1">
          <mxGeometry x="-38" y="775" width="90" height="45" as="geometry" />
        </mxCell>
        <mxCell id="xORFpnPC-fu5SrFgAWwJ-132" value="Bebidas Alcoolicas" style="ellipse;whiteSpace=wrap;html=1;fontStyle=0" parent="1" vertex="1">
          <mxGeometry x="-39" y="361" width="90" height="45" as="geometry" />
        </mxCell>
        <mxCell id="xORFpnPC-fu5SrFgAWwJ-133" value="Ex-Etilista" style="ellipse;whiteSpace=wrap;html=1;fontStyle=0" parent="1" vertex="1">
          <mxGeometry x="28.5" y="274" width="65" height="45" as="geometry" />
        </mxCell>
        <mxCell id="xORFpnPC-fu5SrFgAWwJ-134" value="Não Etilista" style="ellipse;whiteSpace=wrap;html=1;fontStyle=0" parent="1" vertex="1">
          <mxGeometry x="-80" y="274" width="65" height="45" as="geometry" />
        </mxCell>
        <mxCell id="xORFpnPC-fu5SrFgAWwJ-137" value="&lt;span class=&quot;notion-enable-hover&quot; data-token-index=&quot;0&quot; style=&quot;&quot;&gt;Exposição a Poluentes Ambientais&lt;/span&gt;" style="ellipse;whiteSpace=wrap;html=1;fontStyle=0" parent="1" vertex="1">
          <mxGeometry x="818" y="1092" width="90" height="45" as="geometry" />
        </mxCell>
        <mxCell id="xORFpnPC-fu5SrFgAWwJ-146" value="Espiritualidade" style="ellipse;whiteSpace=wrap;html=1;fontStyle=0" parent="1" vertex="1">
          <mxGeometry x="400" y="280" width="90" height="45" as="geometry" />
        </mxCell>
        <mxCell id="xORFpnPC-fu5SrFgAWwJ-160" value="Etilista" style="ellipse;whiteSpace=wrap;html=1;fontStyle=0" parent="1" vertex="1">
          <mxGeometry x="-26.5" y="305" width="65" height="45" as="geometry" />
        </mxCell>
        <mxCell id="xORFpnPC-fu5SrFgAWwJ-161" value="" style="endArrow=none;html=1;rounded=0;entryX=0.5;entryY=1;entryDx=0;entryDy=0;exitX=1;exitY=0;exitDx=0;exitDy=0;" parent="1" source="xORFpnPC-fu5SrFgAWwJ-2" target="xORFpnPC-fu5SrFgAWwJ-17" edge="1">
          <mxGeometry width="50" height="50" relative="1" as="geometry">
            <mxPoint x="300" y="746" as="sourcePoint" />
            <mxPoint x="350" y="696" as="targetPoint" />
          </mxGeometry>
        </mxCell>
        <mxCell id="xORFpnPC-fu5SrFgAWwJ-162" value="" style="endArrow=none;html=1;rounded=0;entryX=0.5;entryY=0;entryDx=0;entryDy=0;exitX=0.5;exitY=1;exitDx=0;exitDy=0;" parent="1" source="xORFpnPC-fu5SrFgAWwJ-2" target="xORFpnPC-fu5SrFgAWwJ-10" edge="1">
          <mxGeometry width="50" height="50" relative="1" as="geometry">
            <mxPoint x="310" y="786" as="sourcePoint" />
            <mxPoint x="350" y="696" as="targetPoint" />
          </mxGeometry>
        </mxCell>
        <mxCell id="xORFpnPC-fu5SrFgAWwJ-163" value="" style="endArrow=none;html=1;rounded=0;exitX=1;exitY=0.5;exitDx=0;exitDy=0;entryX=0;entryY=0;entryDx=0;entryDy=0;" parent="1" source="xORFpnPC-fu5SrFgAWwJ-9" target="xORFpnPC-fu5SrFgAWwJ-2" edge="1">
          <mxGeometry width="50" height="50" relative="1" as="geometry">
            <mxPoint x="300" y="796" as="sourcePoint" />
            <mxPoint x="350" y="746" as="targetPoint" />
          </mxGeometry>
        </mxCell>
        <mxCell id="xORFpnPC-fu5SrFgAWwJ-164" value="" style="endArrow=none;html=1;rounded=0;entryX=1;entryY=1;entryDx=0;entryDy=0;exitX=0.5;exitY=0;exitDx=0;exitDy=0;" parent="1" source="xORFpnPC-fu5SrFgAWwJ-2" target="xORFpnPC-fu5SrFgAWwJ-12" edge="1">
          <mxGeometry width="50" height="50" relative="1" as="geometry">
            <mxPoint x="300" y="796" as="sourcePoint" />
            <mxPoint x="350" y="746" as="targetPoint" />
          </mxGeometry>
        </mxCell>
        <mxCell id="xORFpnPC-fu5SrFgAWwJ-165" value="" style="endArrow=none;html=1;rounded=0;exitX=1;exitY=0.5;exitDx=0;exitDy=0;entryX=0;entryY=1;entryDx=0;entryDy=0;" parent="1" source="xORFpnPC-fu5SrFgAWwJ-13" target="xORFpnPC-fu5SrFgAWwJ-2" edge="1">
          <mxGeometry width="50" height="50" relative="1" as="geometry">
            <mxPoint x="300" y="796" as="sourcePoint" />
            <mxPoint x="350" y="746" as="targetPoint" />
          </mxGeometry>
        </mxCell>
        <mxCell id="PxvKYDBfWrlnJJbrTDXg-1" value="" style="endArrow=none;html=1;rounded=0;entryX=0.5;entryY=1;entryDx=0;entryDy=0;exitX=0.5;exitY=0;exitDx=0;exitDy=0;" parent="1" source="xORFpnPC-fu5SrFgAWwJ-113" target="xORFpnPC-fu5SrFgAWwJ-41" edge="1">
          <mxGeometry width="50" height="50" relative="1" as="geometry">
            <mxPoint x="542" y="1011" as="sourcePoint" />
            <mxPoint x="592" y="961" as="targetPoint" />
          </mxGeometry>
        </mxCell>
        <mxCell id="PxvKYDBfWrlnJJbrTDXg-2" value="" style="endArrow=none;html=1;rounded=0;entryX=1;entryY=1;entryDx=0;entryDy=0;exitX=0;exitY=0;exitDx=0;exitDy=0;" parent="1" source="xORFpnPC-fu5SrFgAWwJ-114" target="xORFpnPC-fu5SrFgAWwJ-41" edge="1">
          <mxGeometry width="50" height="50" relative="1" as="geometry">
            <mxPoint x="542" y="1086" as="sourcePoint" />
            <mxPoint x="592" y="1036" as="targetPoint" />
          </mxGeometry>
        </mxCell>
        <mxCell id="PxvKYDBfWrlnJJbrTDXg-3" value="" style="endArrow=none;html=1;rounded=0;entryX=1;entryY=0.5;entryDx=0;entryDy=0;exitX=0;exitY=0.5;exitDx=0;exitDy=0;" parent="1" source="xORFpnPC-fu5SrFgAWwJ-115" target="xORFpnPC-fu5SrFgAWwJ-41" edge="1">
          <mxGeometry width="50" height="50" relative="1" as="geometry">
            <mxPoint x="542" y="1086" as="sourcePoint" />
            <mxPoint x="592" y="1036" as="targetPoint" />
          </mxGeometry>
        </mxCell>
        <mxCell id="PxvKYDBfWrlnJJbrTDXg-4" value="" style="endArrow=none;html=1;rounded=0;entryX=0;entryY=1;entryDx=0;entryDy=0;exitX=1;exitY=0;exitDx=0;exitDy=0;" parent="1" source="xORFpnPC-fu5SrFgAWwJ-112" target="xORFpnPC-fu5SrFgAWwJ-41" edge="1">
          <mxGeometry width="50" height="50" relative="1" as="geometry">
            <mxPoint x="542" y="1011" as="sourcePoint" />
            <mxPoint x="592" y="961" as="targetPoint" />
          </mxGeometry>
        </mxCell>
        <mxCell id="PxvKYDBfWrlnJJbrTDXg-5" value="" style="endArrow=none;html=1;rounded=0;exitX=1;exitY=0.5;exitDx=0;exitDy=0;entryX=0;entryY=0.5;entryDx=0;entryDy=0;" parent="1" source="xORFpnPC-fu5SrFgAWwJ-111" target="xORFpnPC-fu5SrFgAWwJ-41" edge="1">
          <mxGeometry width="50" height="50" relative="1" as="geometry">
            <mxPoint x="542" y="1011" as="sourcePoint" />
            <mxPoint x="452" y="931" as="targetPoint" />
          </mxGeometry>
        </mxCell>
        <mxCell id="PxvKYDBfWrlnJJbrTDXg-6" value="" style="endArrow=none;html=1;rounded=0;entryX=0;entryY=0.5;entryDx=0;entryDy=0;exitX=1;exitY=0.5;exitDx=0;exitDy=0;" parent="1" source="xORFpnPC-fu5SrFgAWwJ-75" target="xORFpnPC-fu5SrFgAWwJ-27" edge="1">
          <mxGeometry width="50" height="50" relative="1" as="geometry">
            <mxPoint x="87" y="693" as="sourcePoint" />
            <mxPoint x="137" y="643" as="targetPoint" />
          </mxGeometry>
        </mxCell>
        <mxCell id="PxvKYDBfWrlnJJbrTDXg-7" value="" style="endArrow=none;html=1;rounded=0;entryX=0.5;entryY=1;entryDx=0;entryDy=0;exitX=0.5;exitY=0;exitDx=0;exitDy=0;" parent="1" source="xORFpnPC-fu5SrFgAWwJ-75" target="xORFpnPC-fu5SrFgAWwJ-82" edge="1">
          <mxGeometry width="50" height="50" relative="1" as="geometry">
            <mxPoint x="10" y="560.5" as="sourcePoint" />
            <mxPoint x="107" y="533" as="targetPoint" />
          </mxGeometry>
        </mxCell>
        <mxCell id="PxvKYDBfWrlnJJbrTDXg-8" value="" style="endArrow=none;html=1;rounded=0;exitX=0.5;exitY=0;exitDx=0;exitDy=0;entryX=0.5;entryY=1;entryDx=0;entryDy=0;" parent="1" source="xORFpnPC-fu5SrFgAWwJ-79" target="xORFpnPC-fu5SrFgAWwJ-75" edge="1">
          <mxGeometry width="50" height="50" relative="1" as="geometry">
            <mxPoint x="-113" y="613" as="sourcePoint" />
            <mxPoint x="-63" y="563" as="targetPoint" />
          </mxGeometry>
        </mxCell>
        <mxCell id="PxvKYDBfWrlnJJbrTDXg-9" value="Outro" style="ellipse;whiteSpace=wrap;html=1;fontStyle=0" parent="1" vertex="1">
          <mxGeometry x="-185" y="479" width="90" height="45" as="geometry" />
        </mxCell>
        <mxCell id="PxvKYDBfWrlnJJbrTDXg-10" value="" style="endArrow=none;html=1;rounded=0;entryX=0.5;entryY=1;entryDx=0;entryDy=0;exitX=0.5;exitY=0;exitDx=0;exitDy=0;" parent="1" source="xORFpnPC-fu5SrFgAWwJ-82" target="xORFpnPC-fu5SrFgAWwJ-132" edge="1">
          <mxGeometry width="50" height="50" relative="1" as="geometry">
            <mxPoint x="17" y="493" as="sourcePoint" />
            <mxPoint x="67" y="443" as="targetPoint" />
          </mxGeometry>
        </mxCell>
        <mxCell id="PxvKYDBfWrlnJJbrTDXg-11" value="Água" style="ellipse;whiteSpace=wrap;html=1;fontStyle=0" parent="1" vertex="1">
          <mxGeometry x="-120" y="421" width="90" height="45" as="geometry" />
        </mxCell>
        <mxCell id="PxvKYDBfWrlnJJbrTDXg-12" value="" style="endArrow=none;html=1;rounded=0;entryX=1;entryY=1;entryDx=0;entryDy=0;exitX=0;exitY=0;exitDx=0;exitDy=0;" parent="1" source="xORFpnPC-fu5SrFgAWwJ-82" target="PxvKYDBfWrlnJJbrTDXg-11" edge="1">
          <mxGeometry width="50" height="50" relative="1" as="geometry">
            <mxPoint x="17" y="463" as="sourcePoint" />
            <mxPoint x="67" y="413" as="targetPoint" />
          </mxGeometry>
        </mxCell>
        <mxCell id="PxvKYDBfWrlnJJbrTDXg-13" value="" style="endArrow=none;html=1;rounded=0;entryX=0;entryY=1;entryDx=0;entryDy=0;exitX=1;exitY=0;exitDx=0;exitDy=0;" parent="1" source="xORFpnPC-fu5SrFgAWwJ-82" target="xORFpnPC-fu5SrFgAWwJ-129" edge="1">
          <mxGeometry width="50" height="50" relative="1" as="geometry">
            <mxPoint x="17" y="463" as="sourcePoint" />
            <mxPoint x="67" y="413" as="targetPoint" />
          </mxGeometry>
        </mxCell>
        <mxCell id="PxvKYDBfWrlnJJbrTDXg-14" value="" style="endArrow=none;html=1;rounded=0;exitX=1;exitY=0.5;exitDx=0;exitDy=0;entryX=0;entryY=0.5;entryDx=0;entryDy=0;" parent="1" source="PxvKYDBfWrlnJJbrTDXg-9" target="xORFpnPC-fu5SrFgAWwJ-82" edge="1">
          <mxGeometry width="50" height="50" relative="1" as="geometry">
            <mxPoint x="17" y="463" as="sourcePoint" />
            <mxPoint x="67" y="413" as="targetPoint" />
          </mxGeometry>
        </mxCell>
        <mxCell id="PxvKYDBfWrlnJJbrTDXg-15" value="" style="endArrow=none;html=1;rounded=0;entryX=0.5;entryY=1;entryDx=0;entryDy=0;exitX=0.5;exitY=0;exitDx=0;exitDy=0;" parent="1" source="xORFpnPC-fu5SrFgAWwJ-132" target="xORFpnPC-fu5SrFgAWwJ-160" edge="1">
          <mxGeometry width="50" height="50" relative="1" as="geometry">
            <mxPoint x="46" y="331" as="sourcePoint" />
            <mxPoint x="86" y="411" as="targetPoint" />
          </mxGeometry>
        </mxCell>
        <mxCell id="PxvKYDBfWrlnJJbrTDXg-16" value="" style="endArrow=none;html=1;rounded=0;entryX=0.5;entryY=1;entryDx=0;entryDy=0;exitX=0;exitY=0;exitDx=0;exitDy=0;" parent="1" source="xORFpnPC-fu5SrFgAWwJ-132" target="xORFpnPC-fu5SrFgAWwJ-134" edge="1">
          <mxGeometry width="50" height="50" relative="1" as="geometry">
            <mxPoint x="36" y="461" as="sourcePoint" />
            <mxPoint x="86" y="411" as="targetPoint" />
          </mxGeometry>
        </mxCell>
        <mxCell id="PxvKYDBfWrlnJJbrTDXg-17" value="" style="endArrow=none;html=1;rounded=0;entryX=0.5;entryY=1;entryDx=0;entryDy=0;exitX=1;exitY=0;exitDx=0;exitDy=0;" parent="1" source="xORFpnPC-fu5SrFgAWwJ-132" target="xORFpnPC-fu5SrFgAWwJ-133" edge="1">
          <mxGeometry width="50" height="50" relative="1" as="geometry">
            <mxPoint x="36" y="461" as="sourcePoint" />
            <mxPoint x="86" y="411" as="targetPoint" />
          </mxGeometry>
        </mxCell>
        <mxCell id="PxvKYDBfWrlnJJbrTDXg-20" value="" style="endArrow=none;html=1;rounded=0;entryX=1;entryY=1;entryDx=0;entryDy=0;exitX=0.5;exitY=0;exitDx=0;exitDy=0;" parent="1" source="PxvKYDBfWrlnJJbrTDXg-11" target="PxvKYDBfWrlnJJbrTDXg-58" edge="1">
          <mxGeometry width="50" height="50" relative="1" as="geometry">
            <mxPoint x="26" y="481" as="sourcePoint" />
            <mxPoint x="-129" y="376" as="targetPoint" />
          </mxGeometry>
        </mxCell>
        <mxCell id="PxvKYDBfWrlnJJbrTDXg-21" value="" style="endArrow=none;html=1;rounded=0;entryX=1;entryY=0.5;entryDx=0;entryDy=0;exitX=0;exitY=0;exitDx=0;exitDy=0;" parent="1" source="PxvKYDBfWrlnJJbrTDXg-11" target="PxvKYDBfWrlnJJbrTDXg-59" edge="1">
          <mxGeometry width="50" height="50" relative="1" as="geometry">
            <mxPoint x="26" y="481" as="sourcePoint" />
            <mxPoint x="-176.85386383811715" y="409.24504628337127" as="targetPoint" />
          </mxGeometry>
        </mxCell>
        <mxCell id="PxvKYDBfWrlnJJbrTDXg-24" value="" style="endArrow=none;html=1;rounded=0;entryX=0;entryY=1;entryDx=0;entryDy=0;exitX=0.5;exitY=0;exitDx=0;exitDy=0;" parent="1" source="xORFpnPC-fu5SrFgAWwJ-129" target="PxvKYDBfWrlnJJbrTDXg-60" edge="1">
          <mxGeometry width="50" height="50" relative="1" as="geometry">
            <mxPoint x="26" y="451" as="sourcePoint" />
            <mxPoint x="151" y="376" as="targetPoint" />
          </mxGeometry>
        </mxCell>
        <mxCell id="PxvKYDBfWrlnJJbrTDXg-25" value="" style="endArrow=none;html=1;rounded=0;entryX=0;entryY=0.5;entryDx=0;entryDy=0;exitX=1;exitY=0.5;exitDx=0;exitDy=0;" parent="1" edge="1">
          <mxGeometry width="50" height="50" relative="1" as="geometry">
            <mxPoint x="156" y="444.5" as="sourcePoint" />
            <mxPoint x="173" y="434.5" as="targetPoint" />
          </mxGeometry>
        </mxCell>
        <mxCell id="PxvKYDBfWrlnJJbrTDXg-27" value="Frequência" style="ellipse;whiteSpace=wrap;html=1;fontStyle=0" parent="1" vertex="1">
          <mxGeometry x="-275" y="447" width="70" height="45" as="geometry" />
        </mxCell>
        <mxCell id="PxvKYDBfWrlnJJbrTDXg-31" value="" style="endArrow=none;html=1;rounded=0;entryX=0;entryY=0.5;entryDx=0;entryDy=0;exitX=1;exitY=0.5;exitDx=0;exitDy=0;" parent="1" source="PxvKYDBfWrlnJJbrTDXg-56" target="PxvKYDBfWrlnJJbrTDXg-9" edge="1">
          <mxGeometry width="50" height="50" relative="1" as="geometry">
            <mxPoint x="-243" y="513" as="sourcePoint" />
            <mxPoint x="77" y="473" as="targetPoint" />
          </mxGeometry>
        </mxCell>
        <mxCell id="PxvKYDBfWrlnJJbrTDXg-33" value="" style="endArrow=none;html=1;rounded=0;entryX=1;entryY=1;entryDx=0;entryDy=0;exitX=0;exitY=0;exitDx=0;exitDy=0;" parent="1" source="PxvKYDBfWrlnJJbrTDXg-9" target="PxvKYDBfWrlnJJbrTDXg-27" edge="1">
          <mxGeometry width="50" height="50" relative="1" as="geometry">
            <mxPoint x="27" y="523" as="sourcePoint" />
            <mxPoint x="77" y="473" as="targetPoint" />
          </mxGeometry>
        </mxCell>
        <mxCell id="PxvKYDBfWrlnJJbrTDXg-34" value="" style="endArrow=none;html=1;rounded=0;exitX=0.5;exitY=0;exitDx=0;exitDy=0;entryX=0.5;entryY=1;entryDx=0;entryDy=0;" parent="1" source="PxvKYDBfWrlnJJbrTDXg-57" target="PxvKYDBfWrlnJJbrTDXg-9" edge="1">
          <mxGeometry width="50" height="50" relative="1" as="geometry">
            <mxPoint x="-228" y="528" as="sourcePoint" />
            <mxPoint x="77" y="473" as="targetPoint" />
          </mxGeometry>
        </mxCell>
        <mxCell id="PxvKYDBfWrlnJJbrTDXg-35" value="Alimentos não saudáveis" style="ellipse;whiteSpace=wrap;html=1;fontStyle=0" parent="1" vertex="1">
          <mxGeometry x="-147.5" y="639" width="90" height="45" as="geometry" />
        </mxCell>
        <mxCell id="PxvKYDBfWrlnJJbrTDXg-37" value="Alimentos tradicionais" style="ellipse;whiteSpace=wrap;html=1;fontStyle=0" parent="1" vertex="1">
          <mxGeometry x="-38" y="705" width="90" height="45" as="geometry" />
        </mxCell>
        <mxCell id="PxvKYDBfWrlnJJbrTDXg-38" value="Complementos alimentares" style="ellipse;whiteSpace=wrap;html=1;fontStyle=0" parent="1" vertex="1">
          <mxGeometry x="96" y="685" width="90" height="45" as="geometry" />
        </mxCell>
        <mxCell id="PxvKYDBfWrlnJJbrTDXg-39" value="Outro" style="ellipse;whiteSpace=wrap;html=1;fontStyle=0" parent="1" vertex="1">
          <mxGeometry x="117" y="775" width="90" height="45" as="geometry" />
        </mxCell>
        <mxCell id="PxvKYDBfWrlnJJbrTDXg-40" value="Outro" style="ellipse;whiteSpace=wrap;html=1;fontStyle=0" parent="1" vertex="1">
          <mxGeometry x="-242" y="670" width="90" height="45" as="geometry" />
        </mxCell>
        <mxCell id="PxvKYDBfWrlnJJbrTDXg-42" value="" style="endArrow=none;html=1;rounded=0;entryX=0.5;entryY=1;entryDx=0;entryDy=0;exitX=0.5;exitY=0;exitDx=0;exitDy=0;" parent="1" source="PxvKYDBfWrlnJJbrTDXg-37" target="xORFpnPC-fu5SrFgAWwJ-79" edge="1">
          <mxGeometry width="50" height="50" relative="1" as="geometry">
            <mxPoint x="-273" y="813" as="sourcePoint" />
            <mxPoint x="-223" y="763" as="targetPoint" />
          </mxGeometry>
        </mxCell>
        <mxCell id="PxvKYDBfWrlnJJbrTDXg-43" value="" style="endArrow=none;html=1;rounded=0;entryX=0;entryY=0.5;entryDx=0;entryDy=0;exitX=1;exitY=0.5;exitDx=0;exitDy=0;" parent="1" source="PxvKYDBfWrlnJJbrTDXg-35" target="xORFpnPC-fu5SrFgAWwJ-79" edge="1">
          <mxGeometry width="50" height="50" relative="1" as="geometry">
            <mxPoint x="-65" y="717" as="sourcePoint" />
            <mxPoint x="-213" y="773" as="targetPoint" />
          </mxGeometry>
        </mxCell>
        <mxCell id="PxvKYDBfWrlnJJbrTDXg-44" value="" style="endArrow=none;html=1;rounded=0;exitX=0.5;exitY=0;exitDx=0;exitDy=0;entryX=1;entryY=0.5;entryDx=0;entryDy=0;" parent="1" source="PxvKYDBfWrlnJJbrTDXg-38" target="xORFpnPC-fu5SrFgAWwJ-79" edge="1">
          <mxGeometry width="50" height="50" relative="1" as="geometry">
            <mxPoint x="-253" y="833" as="sourcePoint" />
            <mxPoint x="55" y="657" as="targetPoint" />
          </mxGeometry>
        </mxCell>
        <mxCell id="PxvKYDBfWrlnJJbrTDXg-45" value="" style="endArrow=none;html=1;rounded=0;entryX=1;entryY=0.5;entryDx=0;entryDy=0;exitX=0;exitY=1;exitDx=0;exitDy=0;" parent="1" source="PxvKYDBfWrlnJJbrTDXg-35" target="PxvKYDBfWrlnJJbrTDXg-40" edge="1">
          <mxGeometry width="50" height="50" relative="1" as="geometry">
            <mxPoint x="-16.5" y="745" as="sourcePoint" />
            <mxPoint x="33.5" y="695" as="targetPoint" />
          </mxGeometry>
        </mxCell>
        <mxCell id="PxvKYDBfWrlnJJbrTDXg-46" value="" style="endArrow=none;html=1;rounded=0;entryX=1;entryY=0.5;entryDx=0;entryDy=0;exitX=0;exitY=0;exitDx=0;exitDy=0;" parent="1" source="PxvKYDBfWrlnJJbrTDXg-35" target="xORFpnPC-fu5SrFgAWwJ-122" edge="1">
          <mxGeometry width="50" height="50" relative="1" as="geometry">
            <mxPoint x="-106.5" y="585" as="sourcePoint" />
            <mxPoint x="33.5" y="715" as="targetPoint" />
          </mxGeometry>
        </mxCell>
        <mxCell id="PxvKYDBfWrlnJJbrTDXg-48" value="" style="endArrow=none;html=1;rounded=0;entryX=0;entryY=0.5;entryDx=0;entryDy=0;exitX=1;exitY=0;exitDx=0;exitDy=0;" parent="1" source="PxvKYDBfWrlnJJbrTDXg-38" target="PxvKYDBfWrlnJJbrTDXg-206" edge="1">
          <mxGeometry width="50" height="50" relative="1" as="geometry">
            <mxPoint x="498" y="1076.5" as="sourcePoint" />
            <mxPoint x="748" y="879" as="targetPoint" />
          </mxGeometry>
        </mxCell>
        <mxCell id="PxvKYDBfWrlnJJbrTDXg-49" value="" style="endArrow=none;html=1;rounded=0;entryX=0;entryY=0.5;entryDx=0;entryDy=0;exitX=1;exitY=0.5;exitDx=0;exitDy=0;" parent="1" source="PxvKYDBfWrlnJJbrTDXg-38" target="PxvKYDBfWrlnJJbrTDXg-207" edge="1">
          <mxGeometry width="50" height="50" relative="1" as="geometry">
            <mxPoint x="638" y="1026.5" as="sourcePoint" />
            <mxPoint x="748" y="946" as="targetPoint" />
          </mxGeometry>
        </mxCell>
        <mxCell id="PxvKYDBfWrlnJJbrTDXg-50" value="" style="endArrow=none;html=1;rounded=0;entryX=1;entryY=1;entryDx=0;entryDy=0;exitX=0;exitY=0.5;exitDx=0;exitDy=0;" parent="1" source="PxvKYDBfWrlnJJbrTDXg-208" target="PxvKYDBfWrlnJJbrTDXg-38" edge="1">
          <mxGeometry width="50" height="50" relative="1" as="geometry">
            <mxPoint x="748" y="1009" as="sourcePoint" />
            <mxPoint x="688" y="996.5" as="targetPoint" />
          </mxGeometry>
        </mxCell>
        <mxCell id="PxvKYDBfWrlnJJbrTDXg-51" value="" style="endArrow=none;html=1;rounded=0;entryX=0;entryY=0.5;entryDx=0;entryDy=0;exitX=0.5;exitY=0;exitDx=0;exitDy=0;" parent="1" source="xORFpnPC-fu5SrFgAWwJ-106" target="PxvKYDBfWrlnJJbrTDXg-37" edge="1">
          <mxGeometry width="50" height="50" relative="1" as="geometry">
            <mxPoint x="-263" y="873" as="sourcePoint" />
            <mxPoint x="-133" y="853" as="targetPoint" />
          </mxGeometry>
        </mxCell>
        <mxCell id="PxvKYDBfWrlnJJbrTDXg-52" value="" style="endArrow=none;html=1;rounded=0;entryX=0.5;entryY=0;entryDx=0;entryDy=0;exitX=1;exitY=0.5;exitDx=0;exitDy=0;" parent="1" source="PxvKYDBfWrlnJJbrTDXg-37" target="PxvKYDBfWrlnJJbrTDXg-39" edge="1">
          <mxGeometry width="50" height="50" relative="1" as="geometry">
            <mxPoint x="7" y="765" as="sourcePoint" />
            <mxPoint x="97" y="675" as="targetPoint" />
          </mxGeometry>
        </mxCell>
        <mxCell id="PxvKYDBfWrlnJJbrTDXg-53" value="" style="endArrow=none;html=1;rounded=0;entryX=0.5;entryY=1;entryDx=0;entryDy=0;exitX=0.5;exitY=0;exitDx=0;exitDy=0;" parent="1" source="xORFpnPC-fu5SrFgAWwJ-131" target="PxvKYDBfWrlnJJbrTDXg-37" edge="1">
          <mxGeometry width="50" height="50" relative="1" as="geometry">
            <mxPoint x="-13" y="870" as="sourcePoint" />
            <mxPoint x="37" y="820" as="targetPoint" />
          </mxGeometry>
        </mxCell>
        <mxCell id="PxvKYDBfWrlnJJbrTDXg-56" value="Quantidade" style="ellipse;whiteSpace=wrap;html=1;fontStyle=0" parent="1" vertex="1">
          <mxGeometry x="-255" y="515.5" width="70" height="45" as="geometry" />
        </mxCell>
        <mxCell id="PxvKYDBfWrlnJJbrTDXg-57" value="Tipo" style="ellipse;whiteSpace=wrap;html=1;fontStyle=0" parent="1" vertex="1">
          <mxGeometry x="-175" y="543" width="70" height="45" as="geometry" />
        </mxCell>
        <mxCell id="PxvKYDBfWrlnJJbrTDXg-58" value="Frequência" style="ellipse;whiteSpace=wrap;html=1;fontStyle=0" parent="1" vertex="1">
          <mxGeometry x="-142" y="347" width="70" height="45" as="geometry" />
        </mxCell>
        <mxCell id="PxvKYDBfWrlnJJbrTDXg-59" value="Quantidade" style="ellipse;whiteSpace=wrap;html=1;fontStyle=0" parent="1" vertex="1">
          <mxGeometry x="-191" y="399" width="70" height="45" as="geometry" />
        </mxCell>
        <mxCell id="PxvKYDBfWrlnJJbrTDXg-60" value="Frequência" style="ellipse;whiteSpace=wrap;html=1;fontStyle=0" parent="1" vertex="1">
          <mxGeometry x="93" y="360" width="70" height="45" as="geometry" />
        </mxCell>
        <mxCell id="PxvKYDBfWrlnJJbrTDXg-61" value="Quantidade" style="ellipse;whiteSpace=wrap;html=1;fontStyle=0" parent="1" vertex="1">
          <mxGeometry x="151" y="411" width="70" height="45" as="geometry" />
        </mxCell>
        <mxCell id="PxvKYDBfWrlnJJbrTDXg-62" value="Frequência" style="ellipse;whiteSpace=wrap;html=1;fontStyle=0" parent="1" vertex="1">
          <mxGeometry x="-307" y="714" width="70" height="45" as="geometry" />
        </mxCell>
        <mxCell id="PxvKYDBfWrlnJJbrTDXg-63" value="Quantidade" style="ellipse;whiteSpace=wrap;html=1;fontStyle=0" parent="1" vertex="1">
          <mxGeometry x="-232" y="725" width="70" height="45" as="geometry" />
        </mxCell>
        <mxCell id="PxvKYDBfWrlnJJbrTDXg-64" value="Tipo" style="ellipse;whiteSpace=wrap;html=1;fontStyle=0" parent="1" vertex="1">
          <mxGeometry x="-345" y="670" width="70" height="45" as="geometry" />
        </mxCell>
        <mxCell id="PxvKYDBfWrlnJJbrTDXg-65" value="Quantidade" style="ellipse;whiteSpace=wrap;html=1;fontStyle=0" parent="1" vertex="1">
          <mxGeometry x="-315" y="579" width="70" height="45" as="geometry" />
        </mxCell>
        <mxCell id="PxvKYDBfWrlnJJbrTDXg-68" value="Frequência" style="ellipse;whiteSpace=wrap;html=1;fontStyle=0" parent="1" vertex="1">
          <mxGeometry x="-316" y="627" width="70" height="45" as="geometry" />
        </mxCell>
        <mxCell id="PxvKYDBfWrlnJJbrTDXg-72" value="" style="endArrow=none;html=1;rounded=0;entryX=0.5;entryY=1;entryDx=0;entryDy=0;exitX=0.5;exitY=0;exitDx=0;exitDy=0;" parent="1" source="PxvKYDBfWrlnJJbrTDXg-63" target="PxvKYDBfWrlnJJbrTDXg-40" edge="1">
          <mxGeometry width="50" height="50" relative="1" as="geometry">
            <mxPoint x="-286.5" y="729" as="sourcePoint" />
            <mxPoint x="-236.5" y="679" as="targetPoint" />
          </mxGeometry>
        </mxCell>
        <mxCell id="PxvKYDBfWrlnJJbrTDXg-73" value="" style="endArrow=none;html=1;rounded=0;entryX=0;entryY=1;entryDx=0;entryDy=0;exitX=1;exitY=0;exitDx=0;exitDy=0;" parent="1" source="PxvKYDBfWrlnJJbrTDXg-62" target="PxvKYDBfWrlnJJbrTDXg-40" edge="1">
          <mxGeometry width="50" height="50" relative="1" as="geometry">
            <mxPoint x="-242.00000000000136" y="750" as="sourcePoint" />
            <mxPoint x="-241.9999999999991" y="705" as="targetPoint" />
          </mxGeometry>
        </mxCell>
        <mxCell id="PxvKYDBfWrlnJJbrTDXg-74" value="" style="endArrow=none;html=1;rounded=0;entryX=0;entryY=0.5;entryDx=0;entryDy=0;exitX=1;exitY=0.5;exitDx=0;exitDy=0;" parent="1" source="PxvKYDBfWrlnJJbrTDXg-64" target="PxvKYDBfWrlnJJbrTDXg-40" edge="1">
          <mxGeometry width="50" height="50" relative="1" as="geometry">
            <mxPoint x="-236.5" y="625" as="sourcePoint" />
            <mxPoint x="-306.5" y="705" as="targetPoint" />
          </mxGeometry>
        </mxCell>
        <mxCell id="PxvKYDBfWrlnJJbrTDXg-75" value="" style="endArrow=none;html=1;rounded=0;entryX=1;entryY=0.5;entryDx=0;entryDy=0;exitX=0;exitY=1;exitDx=0;exitDy=0;" parent="1" source="xORFpnPC-fu5SrFgAWwJ-122" target="PxvKYDBfWrlnJJbrTDXg-68" edge="1">
          <mxGeometry width="50" height="50" relative="1" as="geometry">
            <mxPoint x="-226.5" y="625" as="sourcePoint" />
            <mxPoint x="-316.5" y="745" as="targetPoint" />
          </mxGeometry>
        </mxCell>
        <mxCell id="PxvKYDBfWrlnJJbrTDXg-76" value="" style="endArrow=none;html=1;rounded=0;exitX=0;exitY=0;exitDx=0;exitDy=0;entryX=1;entryY=0.5;entryDx=0;entryDy=0;" parent="1" source="xORFpnPC-fu5SrFgAWwJ-122" target="PxvKYDBfWrlnJJbrTDXg-65" edge="1">
          <mxGeometry width="50" height="50" relative="1" as="geometry">
            <mxPoint x="-216.5" y="625" as="sourcePoint" />
            <mxPoint x="-191.5" y="565" as="targetPoint" />
          </mxGeometry>
        </mxCell>
        <mxCell id="PxvKYDBfWrlnJJbrTDXg-77" value="" style="endArrow=none;html=1;rounded=0;entryX=1;entryY=1;entryDx=0;entryDy=0;exitX=0.5;exitY=0;exitDx=0;exitDy=0;" parent="1" source="PxvKYDBfWrlnJJbrTDXg-91" target="xORFpnPC-fu5SrFgAWwJ-106" edge="1">
          <mxGeometry width="50" height="50" relative="1" as="geometry">
            <mxPoint x="-488" y="1008" as="sourcePoint" />
            <mxPoint x="-438" y="958" as="targetPoint" />
          </mxGeometry>
        </mxCell>
        <mxCell id="PxvKYDBfWrlnJJbrTDXg-78" value="" style="endArrow=none;html=1;rounded=0;entryX=0;entryY=1;entryDx=0;entryDy=0;exitX=0.5;exitY=0;exitDx=0;exitDy=0;" parent="1" source="PxvKYDBfWrlnJJbrTDXg-86" target="xORFpnPC-fu5SrFgAWwJ-131" edge="1">
          <mxGeometry width="50" height="50" relative="1" as="geometry">
            <mxPoint x="-393" y="980" as="sourcePoint" />
            <mxPoint x="-343" y="930" as="targetPoint" />
          </mxGeometry>
        </mxCell>
        <mxCell id="PxvKYDBfWrlnJJbrTDXg-79" value="" style="endArrow=none;html=1;rounded=0;entryX=0;entryY=1;entryDx=0;entryDy=0;exitX=0.5;exitY=0;exitDx=0;exitDy=0;" parent="1" source="PxvKYDBfWrlnJJbrTDXg-92" target="xORFpnPC-fu5SrFgAWwJ-106" edge="1">
          <mxGeometry width="50" height="50" relative="1" as="geometry">
            <mxPoint x="-448" y="1113" as="sourcePoint" />
            <mxPoint x="-398" y="1063" as="targetPoint" />
          </mxGeometry>
        </mxCell>
        <mxCell id="PxvKYDBfWrlnJJbrTDXg-82" value="Tipo" style="ellipse;whiteSpace=wrap;html=1;fontStyle=0" parent="1" vertex="1">
          <mxGeometry x="127" y="885" width="70" height="45" as="geometry" />
        </mxCell>
        <mxCell id="PxvKYDBfWrlnJJbrTDXg-83" value="Frequência" style="ellipse;whiteSpace=wrap;html=1;fontStyle=0" parent="1" vertex="1">
          <mxGeometry x="173" y="835" width="70" height="45" as="geometry" />
        </mxCell>
        <mxCell id="PxvKYDBfWrlnJJbrTDXg-84" value="Quantidade" style="ellipse;whiteSpace=wrap;html=1;fontStyle=0" parent="1" vertex="1">
          <mxGeometry x="88" y="835" width="70" height="45" as="geometry" />
        </mxCell>
        <mxCell id="PxvKYDBfWrlnJJbrTDXg-85" value="Frequência" style="ellipse;whiteSpace=wrap;html=1;fontStyle=0" parent="1" vertex="1">
          <mxGeometry x="15" y="835" width="70" height="45" as="geometry" />
        </mxCell>
        <mxCell id="PxvKYDBfWrlnJJbrTDXg-86" value="Quantidade" style="ellipse;whiteSpace=wrap;html=1;fontStyle=0" parent="1" vertex="1">
          <mxGeometry x="-70" y="835" width="70" height="45" as="geometry" />
        </mxCell>
        <mxCell id="PxvKYDBfWrlnJJbrTDXg-91" value="Frequência" style="ellipse;whiteSpace=wrap;html=1;fontStyle=0" parent="1" vertex="1">
          <mxGeometry x="-144" y="835" width="70" height="45" as="geometry" />
        </mxCell>
        <mxCell id="PxvKYDBfWrlnJJbrTDXg-92" value="Quantidade" style="ellipse;whiteSpace=wrap;html=1;fontStyle=0" parent="1" vertex="1">
          <mxGeometry x="-217" y="835" width="70" height="45" as="geometry" />
        </mxCell>
        <mxCell id="PxvKYDBfWrlnJJbrTDXg-93" value="" style="endArrow=none;html=1;rounded=0;entryX=1;entryY=1;entryDx=0;entryDy=0;exitX=0.5;exitY=0;exitDx=0;exitDy=0;" parent="1" source="PxvKYDBfWrlnJJbrTDXg-85" target="xORFpnPC-fu5SrFgAWwJ-131" edge="1">
          <mxGeometry width="50" height="50" relative="1" as="geometry">
            <mxPoint x="-103" y="935" as="sourcePoint" />
            <mxPoint x="-53" y="885" as="targetPoint" />
          </mxGeometry>
        </mxCell>
        <mxCell id="PxvKYDBfWrlnJJbrTDXg-96" value="" style="endArrow=none;html=1;rounded=0;entryX=0;entryY=1;entryDx=0;entryDy=0;exitX=0.5;exitY=0;exitDx=0;exitDy=0;" parent="1" source="PxvKYDBfWrlnJJbrTDXg-84" target="PxvKYDBfWrlnJJbrTDXg-39" edge="1">
          <mxGeometry width="50" height="50" relative="1" as="geometry">
            <mxPoint x="-10.5" y="965" as="sourcePoint" />
            <mxPoint x="39.5" y="915" as="targetPoint" />
          </mxGeometry>
        </mxCell>
        <mxCell id="PxvKYDBfWrlnJJbrTDXg-97" value="" style="endArrow=none;html=1;rounded=0;entryX=1;entryY=1;entryDx=0;entryDy=0;exitX=0.5;exitY=0;exitDx=0;exitDy=0;" parent="1" source="PxvKYDBfWrlnJJbrTDXg-83" target="PxvKYDBfWrlnJJbrTDXg-39" edge="1">
          <mxGeometry width="50" height="50" relative="1" as="geometry">
            <mxPoint x="17" y="995" as="sourcePoint" />
            <mxPoint x="67" y="945" as="targetPoint" />
          </mxGeometry>
        </mxCell>
        <mxCell id="PxvKYDBfWrlnJJbrTDXg-98" value="" style="endArrow=none;html=1;rounded=0;entryX=0;entryY=0.5;entryDx=0;entryDy=0;exitX=1;exitY=0.5;exitDx=0;exitDy=0;" parent="1" source="xORFpnPC-fu5SrFgAWwJ-54" target="xORFpnPC-fu5SrFgAWwJ-33" edge="1">
          <mxGeometry width="50" height="50" relative="1" as="geometry">
            <mxPoint x="-200" y="1232" as="sourcePoint" />
            <mxPoint x="-150" y="1182" as="targetPoint" />
          </mxGeometry>
        </mxCell>
        <mxCell id="PxvKYDBfWrlnJJbrTDXg-99" value="" style="endArrow=none;html=1;rounded=0;entryX=0.5;entryY=1;entryDx=0;entryDy=0;" parent="1" source="PxvKYDBfWrlnJJbrTDXg-82" target="PxvKYDBfWrlnJJbrTDXg-39" edge="1">
          <mxGeometry width="50" height="50" relative="1" as="geometry">
            <mxPoint x="7" y="885" as="sourcePoint" />
            <mxPoint x="57" y="835" as="targetPoint" />
          </mxGeometry>
        </mxCell>
        <mxCell id="PxvKYDBfWrlnJJbrTDXg-100" value="S/N" style="ellipse;whiteSpace=wrap;html=1;fontStyle=0" parent="1" vertex="1">
          <mxGeometry x="9" y="918" width="70" height="45" as="geometry" />
        </mxCell>
        <mxCell id="PxvKYDBfWrlnJJbrTDXg-101" value="S/N" style="ellipse;whiteSpace=wrap;html=1;fontStyle=0" parent="1" vertex="1">
          <mxGeometry x="-91" y="1051" width="70" height="45" as="geometry" />
        </mxCell>
        <mxCell id="PxvKYDBfWrlnJJbrTDXg-102" value="" style="endArrow=none;html=1;rounded=0;exitX=1;exitY=0.5;exitDx=0;exitDy=0;entryX=0;entryY=0.5;entryDx=0;entryDy=0;" parent="1" source="xORFpnPC-fu5SrFgAWwJ-33" target="xORFpnPC-fu5SrFgAWwJ-53" edge="1">
          <mxGeometry width="50" height="50" relative="1" as="geometry">
            <mxPoint x="-190" y="1242" as="sourcePoint" />
            <mxPoint x="229" y="1063" as="targetPoint" />
          </mxGeometry>
        </mxCell>
        <mxCell id="PxvKYDBfWrlnJJbrTDXg-103" value="" style="endArrow=none;html=1;rounded=0;entryX=0;entryY=1;entryDx=0;entryDy=0;exitX=1;exitY=0.5;exitDx=0;exitDy=0;" parent="1" source="xORFpnPC-fu5SrFgAWwJ-51" target="xORFpnPC-fu5SrFgAWwJ-33" edge="1">
          <mxGeometry width="50" height="50" relative="1" as="geometry">
            <mxPoint x="-164.5" y="1242" as="sourcePoint" />
            <mxPoint x="-114.5" y="1192" as="targetPoint" />
          </mxGeometry>
        </mxCell>
        <mxCell id="PxvKYDBfWrlnJJbrTDXg-104" value="" style="endArrow=none;html=1;rounded=0;entryX=1;entryY=1;entryDx=0;entryDy=0;exitX=0;exitY=0.5;exitDx=0;exitDy=0;" parent="1" source="xORFpnPC-fu5SrFgAWwJ-46" target="xORFpnPC-fu5SrFgAWwJ-33" edge="1">
          <mxGeometry width="50" height="50" relative="1" as="geometry">
            <mxPoint x="-170" y="1262" as="sourcePoint" />
            <mxPoint x="-120" y="1212" as="targetPoint" />
          </mxGeometry>
        </mxCell>
        <mxCell id="PxvKYDBfWrlnJJbrTDXg-105" value="" style="endArrow=none;html=1;rounded=0;entryX=0.5;entryY=1;entryDx=0;entryDy=0;exitX=0.5;exitY=0;exitDx=0;exitDy=0;" parent="1" source="xORFpnPC-fu5SrFgAWwJ-31" target="yp2PRoDkdTtt_5Uzxo_Q-1" edge="1">
          <mxGeometry width="50" height="50" relative="1" as="geometry">
            <mxPoint x="724" y="690" as="sourcePoint" />
            <mxPoint x="817.2800000000002" y="656" as="targetPoint" />
          </mxGeometry>
        </mxCell>
        <mxCell id="PxvKYDBfWrlnJJbrTDXg-106" value="" style="endArrow=none;html=1;rounded=0;entryX=0.5;entryY=1;entryDx=0;entryDy=0;exitX=0.5;exitY=0;exitDx=0;exitDy=0;" parent="1" source="xORFpnPC-fu5SrFgAWwJ-52" target="xORFpnPC-fu5SrFgAWwJ-33" edge="1">
          <mxGeometry width="50" height="50" relative="1" as="geometry">
            <mxPoint x="-150" y="1282" as="sourcePoint" />
            <mxPoint x="-100" y="1232" as="targetPoint" />
          </mxGeometry>
        </mxCell>
        <mxCell id="PxvKYDBfWrlnJJbrTDXg-107" value="" style="endArrow=none;html=1;rounded=0;entryX=0.5;entryY=0;entryDx=0;entryDy=0;exitX=0.5;exitY=1;exitDx=0;exitDy=0;" parent="1" source="PxvKYDBfWrlnJJbrTDXg-100" target="xORFpnPC-fu5SrFgAWwJ-54" edge="1">
          <mxGeometry width="50" height="50" relative="1" as="geometry">
            <mxPoint x="-140" y="1292" as="sourcePoint" />
            <mxPoint x="-90" y="1242" as="targetPoint" />
          </mxGeometry>
        </mxCell>
        <mxCell id="PxvKYDBfWrlnJJbrTDXg-108" value="" style="endArrow=none;html=1;rounded=0;entryX=0;entryY=0.5;entryDx=0;entryDy=0;exitX=1;exitY=0.5;exitDx=0;exitDy=0;" parent="1" source="PxvKYDBfWrlnJJbrTDXg-101" target="xORFpnPC-fu5SrFgAWwJ-51" edge="1">
          <mxGeometry width="50" height="50" relative="1" as="geometry">
            <mxPoint x="-130" y="1302" as="sourcePoint" />
            <mxPoint x="-80" y="1252" as="targetPoint" />
          </mxGeometry>
        </mxCell>
        <mxCell id="PxvKYDBfWrlnJJbrTDXg-110" value="" style="endArrow=none;html=1;rounded=0;entryX=0;entryY=1;entryDx=0;entryDy=0;exitX=0.5;exitY=0;exitDx=0;exitDy=0;" parent="1" source="PxvKYDBfWrlnJJbrTDXg-118" target="xORFpnPC-fu5SrFgAWwJ-52" edge="1">
          <mxGeometry width="50" height="50" relative="1" as="geometry">
            <mxPoint x="171" y="1188" as="sourcePoint" />
            <mxPoint x="-60" y="1272" as="targetPoint" />
          </mxGeometry>
        </mxCell>
        <mxCell id="PxvKYDBfWrlnJJbrTDXg-111" value="" style="endArrow=none;html=1;rounded=0;entryX=1;entryY=1;entryDx=0;entryDy=0;exitX=0.5;exitY=0;exitDx=0;exitDy=0;" parent="1" source="PxvKYDBfWrlnJJbrTDXg-120" target="xORFpnPC-fu5SrFgAWwJ-52" edge="1">
          <mxGeometry width="50" height="50" relative="1" as="geometry">
            <mxPoint x="282" y="1186" as="sourcePoint" />
            <mxPoint x="243" y="1192" as="targetPoint" />
          </mxGeometry>
        </mxCell>
        <mxCell id="PxvKYDBfWrlnJJbrTDXg-114" value="" style="endArrow=none;html=1;rounded=0;entryX=0.5;entryY=1;entryDx=0;entryDy=0;exitX=0.5;exitY=0;exitDx=0;exitDy=0;" parent="1" source="PxvKYDBfWrlnJJbrTDXg-119" target="xORFpnPC-fu5SrFgAWwJ-52" edge="1">
          <mxGeometry width="50" height="50" relative="1" as="geometry">
            <mxPoint x="-70" y="1362" as="sourcePoint" />
            <mxPoint x="218.9667751030056" y="1224.2684895387406" as="targetPoint" />
          </mxGeometry>
        </mxCell>
        <mxCell id="PxvKYDBfWrlnJJbrTDXg-118" value="Estudante" style="ellipse;whiteSpace=wrap;html=1;fontStyle=0" parent="1" vertex="1">
          <mxGeometry x="71" y="1146" width="70" height="45" as="geometry" />
        </mxCell>
        <mxCell id="PxvKYDBfWrlnJJbrTDXg-119" value="Desempregado" style="ellipse;whiteSpace=wrap;html=1;fontStyle=0" parent="1" vertex="1">
          <mxGeometry x="144" y="1168" width="70" height="45" as="geometry" />
        </mxCell>
        <mxCell id="PxvKYDBfWrlnJJbrTDXg-120" value="Renda" style="ellipse;whiteSpace=wrap;html=1;fontStyle=0" parent="1" vertex="1">
          <mxGeometry x="216" y="1142" width="70" height="45" as="geometry" />
        </mxCell>
        <mxCell id="PxvKYDBfWrlnJJbrTDXg-121" value="Região" style="ellipse;whiteSpace=wrap;html=1;fontStyle=0" parent="1" vertex="1">
          <mxGeometry x="279" y="918" width="70" height="45" as="geometry" />
        </mxCell>
        <mxCell id="PxvKYDBfWrlnJJbrTDXg-122" value="" style="endArrow=none;html=1;rounded=0;entryX=0.5;entryY=1;entryDx=0;entryDy=0;exitX=0.5;exitY=0;exitDx=0;exitDy=0;" parent="1" source="xORFpnPC-fu5SrFgAWwJ-53" target="PxvKYDBfWrlnJJbrTDXg-121" edge="1">
          <mxGeometry width="50" height="50" relative="1" as="geometry">
            <mxPoint x="351" y="1124.12" as="sourcePoint" />
            <mxPoint x="393" y="1124.12" as="targetPoint" />
          </mxGeometry>
        </mxCell>
        <mxCell id="PxvKYDBfWrlnJJbrTDXg-124" value="Sim" style="ellipse;whiteSpace=wrap;html=1;fontStyle=0" parent="1" vertex="1">
          <mxGeometry x="668" y="1150" width="70" height="45" as="geometry" />
        </mxCell>
        <mxCell id="PxvKYDBfWrlnJJbrTDXg-125" value="Às vezes" style="ellipse;whiteSpace=wrap;html=1;fontStyle=0" parent="1" vertex="1">
          <mxGeometry x="758" y="1150" width="70" height="45" as="geometry" />
        </mxCell>
        <mxCell id="PxvKYDBfWrlnJJbrTDXg-126" value="Não, Sedentarismo" style="ellipse;whiteSpace=wrap;html=1;fontStyle=0" parent="1" vertex="1">
          <mxGeometry x="711" y="1210" width="70" height="45" as="geometry" />
        </mxCell>
        <mxCell id="PxvKYDBfWrlnJJbrTDXg-127" value="" style="endArrow=none;html=1;rounded=0;entryX=0;entryY=1;entryDx=0;entryDy=0;exitX=0.5;exitY=0;exitDx=0;exitDy=0;" parent="1" source="PxvKYDBfWrlnJJbrTDXg-124" target="xORFpnPC-fu5SrFgAWwJ-65" edge="1">
          <mxGeometry width="50" height="50" relative="1" as="geometry">
            <mxPoint x="822" y="1287" as="sourcePoint" />
            <mxPoint x="872" y="1237" as="targetPoint" />
          </mxGeometry>
        </mxCell>
        <mxCell id="PxvKYDBfWrlnJJbrTDXg-128" value="" style="endArrow=none;html=1;rounded=0;entryX=1;entryY=1;entryDx=0;entryDy=0;exitX=0.5;exitY=0;exitDx=0;exitDy=0;" parent="1" source="PxvKYDBfWrlnJJbrTDXg-125" target="xORFpnPC-fu5SrFgAWwJ-65" edge="1">
          <mxGeometry width="50" height="50" relative="1" as="geometry">
            <mxPoint x="822" y="1287" as="sourcePoint" />
            <mxPoint x="882" y="1197" as="targetPoint" />
          </mxGeometry>
        </mxCell>
        <mxCell id="PxvKYDBfWrlnJJbrTDXg-129" value="" style="endArrow=none;html=1;rounded=0;entryX=0.5;entryY=1;entryDx=0;entryDy=0;exitX=0.5;exitY=0;exitDx=0;exitDy=0;" parent="1" source="PxvKYDBfWrlnJJbrTDXg-126" target="xORFpnPC-fu5SrFgAWwJ-65" edge="1">
          <mxGeometry width="50" height="50" relative="1" as="geometry">
            <mxPoint x="822" y="1287" as="sourcePoint" />
            <mxPoint x="872" y="1237" as="targetPoint" />
          </mxGeometry>
        </mxCell>
        <mxCell id="PxvKYDBfWrlnJJbrTDXg-130" value="Drogas" style="ellipse;whiteSpace=wrap;html=1;fontStyle=0" parent="1" vertex="1">
          <mxGeometry x="865.5" y="915.75" width="70" height="45" as="geometry" />
        </mxCell>
        <mxCell id="PxvKYDBfWrlnJJbrTDXg-131" value="Tabaco" style="ellipse;whiteSpace=wrap;html=1;fontStyle=0" parent="1" vertex="1">
          <mxGeometry x="1023" y="917.5" width="70" height="45" as="geometry" />
        </mxCell>
        <mxCell id="PxvKYDBfWrlnJJbrTDXg-132" value="" style="endArrow=none;html=1;rounded=0;entryX=1;entryY=0.5;entryDx=0;entryDy=0;exitX=0;exitY=0.5;exitDx=0;exitDy=0;" parent="1" target="xORFpnPC-fu5SrFgAWwJ-74" edge="1">
          <mxGeometry width="50" height="50" relative="1" as="geometry">
            <mxPoint x="747.9999999999995" y="1022" as="sourcePoint" />
            <mxPoint x="1002" y="1167" as="targetPoint" />
          </mxGeometry>
        </mxCell>
        <mxCell id="PxvKYDBfWrlnJJbrTDXg-133" value="" style="endArrow=none;html=1;rounded=0;entryX=1;entryY=0.5;entryDx=0;entryDy=0;exitX=0;exitY=0.5;exitDx=0;exitDy=0;" parent="1" source="xORFpnPC-fu5SrFgAWwJ-60" target="xORFpnPC-fu5SrFgAWwJ-32" edge="1">
          <mxGeometry width="50" height="50" relative="1" as="geometry">
            <mxPoint x="1072" y="1246" as="sourcePoint" />
            <mxPoint x="1122" y="1196" as="targetPoint" />
          </mxGeometry>
        </mxCell>
        <mxCell id="PxvKYDBfWrlnJJbrTDXg-134" value="" style="endArrow=none;html=1;rounded=0;entryX=1;entryY=1;entryDx=0;entryDy=0;exitX=0.5;exitY=0;exitDx=0;exitDy=0;" parent="1" source="xORFpnPC-fu5SrFgAWwJ-137" edge="1">
          <mxGeometry width="50" height="50" relative="1" as="geometry">
            <mxPoint x="1022" y="1207" as="sourcePoint" />
            <mxPoint x="850.4264068711918" y="1050.2842712474612" as="targetPoint" />
          </mxGeometry>
        </mxCell>
        <mxCell id="PxvKYDBfWrlnJJbrTDXg-135" value="" style="endArrow=none;html=1;rounded=0;entryX=0;entryY=1;entryDx=0;entryDy=0;exitX=0.5;exitY=0;exitDx=0;exitDy=0;" parent="1" source="xORFpnPC-fu5SrFgAWwJ-65" edge="1">
          <mxGeometry width="50" height="50" relative="1" as="geometry">
            <mxPoint x="1022" y="1207" as="sourcePoint" />
            <mxPoint x="765.5735931288068" y="1050.2842712474621" as="targetPoint" />
          </mxGeometry>
        </mxCell>
        <mxCell id="PxvKYDBfWrlnJJbrTDXg-136" value="Fumante" style="ellipse;whiteSpace=wrap;html=1;fontStyle=0" parent="1" vertex="1">
          <mxGeometry x="985" y="854.5" width="70" height="45" as="geometry" />
        </mxCell>
        <mxCell id="PxvKYDBfWrlnJJbrTDXg-138" value="Não Fumante" style="ellipse;whiteSpace=wrap;html=1;fontStyle=0" parent="1" vertex="1">
          <mxGeometry x="1061" y="854.5" width="70" height="45" as="geometry" />
        </mxCell>
        <mxCell id="PxvKYDBfWrlnJJbrTDXg-139" value="Ex-Fumante" style="ellipse;whiteSpace=wrap;html=1;fontStyle=0" parent="1" vertex="1">
          <mxGeometry x="1023" y="796.5" width="70" height="45" as="geometry" />
        </mxCell>
        <mxCell id="PxvKYDBfWrlnJJbrTDXg-140" value="" style="endArrow=none;html=1;rounded=0;entryX=0.5;entryY=1;entryDx=0;entryDy=0;exitX=0;exitY=0;exitDx=0;exitDy=0;" parent="1" source="PxvKYDBfWrlnJJbrTDXg-131" target="PxvKYDBfWrlnJJbrTDXg-136" edge="1">
          <mxGeometry width="50" height="50" relative="1" as="geometry">
            <mxPoint x="1132" y="1067" as="sourcePoint" />
            <mxPoint x="1182" y="1017" as="targetPoint" />
          </mxGeometry>
        </mxCell>
        <mxCell id="PxvKYDBfWrlnJJbrTDXg-141" value="" style="endArrow=none;html=1;rounded=0;entryX=0.5;entryY=1;entryDx=0;entryDy=0;exitX=1;exitY=0;exitDx=0;exitDy=0;" parent="1" source="PxvKYDBfWrlnJJbrTDXg-131" target="PxvKYDBfWrlnJJbrTDXg-138" edge="1">
          <mxGeometry width="50" height="50" relative="1" as="geometry">
            <mxPoint x="1132" y="1067" as="sourcePoint" />
            <mxPoint x="1182" y="1017" as="targetPoint" />
          </mxGeometry>
        </mxCell>
        <mxCell id="PxvKYDBfWrlnJJbrTDXg-142" value="" style="endArrow=none;html=1;rounded=0;entryX=0.5;entryY=1;entryDx=0;entryDy=0;exitX=0.5;exitY=0;exitDx=0;exitDy=0;" parent="1" source="PxvKYDBfWrlnJJbrTDXg-131" target="PxvKYDBfWrlnJJbrTDXg-139" edge="1">
          <mxGeometry width="50" height="50" relative="1" as="geometry">
            <mxPoint x="1132" y="1067" as="sourcePoint" />
            <mxPoint x="1182" y="1017" as="targetPoint" />
          </mxGeometry>
        </mxCell>
        <mxCell id="PxvKYDBfWrlnJJbrTDXg-143" value="Usuário" style="ellipse;whiteSpace=wrap;html=1;fontStyle=0" parent="1" vertex="1">
          <mxGeometry x="828" y="852.25" width="70" height="45" as="geometry" />
        </mxCell>
        <mxCell id="PxvKYDBfWrlnJJbrTDXg-144" value="Não Usuário" style="ellipse;whiteSpace=wrap;html=1;fontStyle=0" parent="1" vertex="1">
          <mxGeometry x="903" y="852.25" width="70" height="45" as="geometry" />
        </mxCell>
        <mxCell id="PxvKYDBfWrlnJJbrTDXg-145" value="Ex-Usuário" style="ellipse;whiteSpace=wrap;html=1;fontStyle=0" parent="1" vertex="1">
          <mxGeometry x="865" y="794.25" width="70" height="45" as="geometry" />
        </mxCell>
        <mxCell id="PxvKYDBfWrlnJJbrTDXg-146" value="" style="endArrow=none;html=1;rounded=0;entryX=0.5;entryY=1;entryDx=0;entryDy=0;exitX=0;exitY=0;exitDx=0;exitDy=0;" parent="1" source="PxvKYDBfWrlnJJbrTDXg-130" target="PxvKYDBfWrlnJJbrTDXg-143" edge="1">
          <mxGeometry width="50" height="50" relative="1" as="geometry">
            <mxPoint x="1062" y="1077" as="sourcePoint" />
            <mxPoint x="1112" y="1027" as="targetPoint" />
          </mxGeometry>
        </mxCell>
        <mxCell id="PxvKYDBfWrlnJJbrTDXg-147" value="" style="endArrow=none;html=1;rounded=0;entryX=0.5;entryY=1;entryDx=0;entryDy=0;exitX=1;exitY=0;exitDx=0;exitDy=0;" parent="1" source="PxvKYDBfWrlnJJbrTDXg-130" target="PxvKYDBfWrlnJJbrTDXg-144" edge="1">
          <mxGeometry width="50" height="50" relative="1" as="geometry">
            <mxPoint x="1062" y="1077" as="sourcePoint" />
            <mxPoint x="1112" y="1027" as="targetPoint" />
          </mxGeometry>
        </mxCell>
        <mxCell id="PxvKYDBfWrlnJJbrTDXg-148" value="" style="endArrow=none;html=1;rounded=0;entryX=0.5;entryY=1;entryDx=0;entryDy=0;exitX=0.5;exitY=0;exitDx=0;exitDy=0;" parent="1" source="PxvKYDBfWrlnJJbrTDXg-130" target="PxvKYDBfWrlnJJbrTDXg-145" edge="1">
          <mxGeometry width="50" height="50" relative="1" as="geometry">
            <mxPoint x="1062" y="1077" as="sourcePoint" />
            <mxPoint x="1112" y="1027" as="targetPoint" />
          </mxGeometry>
        </mxCell>
        <mxCell id="PxvKYDBfWrlnJJbrTDXg-149" value="" style="endArrow=none;html=1;rounded=0;entryX=0.5;entryY=1;entryDx=0;entryDy=0;exitX=1;exitY=0;exitDx=0;exitDy=0;" parent="1" target="PxvKYDBfWrlnJJbrTDXg-131" edge="1">
          <mxGeometry width="50" height="50" relative="1" as="geometry">
            <mxPoint x="1007.3370963794532" y="1006.3530178809092" as="sourcePoint" />
            <mxPoint x="1092" y="1027" as="targetPoint" />
          </mxGeometry>
        </mxCell>
        <mxCell id="PxvKYDBfWrlnJJbrTDXg-150" value="" style="endArrow=none;html=1;rounded=0;entryX=0.5;entryY=1;entryDx=0;entryDy=0;exitX=0;exitY=0;exitDx=0;exitDy=0;" parent="1" target="PxvKYDBfWrlnJJbrTDXg-130" edge="1">
          <mxGeometry width="50" height="50" relative="1" as="geometry">
            <mxPoint x="942.6629036205463" y="1006.3530178809092" as="sourcePoint" />
            <mxPoint x="1092" y="1027" as="targetPoint" />
          </mxGeometry>
        </mxCell>
        <mxCell id="PxvKYDBfWrlnJJbrTDXg-158" value="S/N" style="ellipse;whiteSpace=wrap;html=1;fontStyle=0" parent="1" vertex="1">
          <mxGeometry x="930" y="1092" width="70" height="45" as="geometry" />
        </mxCell>
        <mxCell id="PxvKYDBfWrlnJJbrTDXg-159" value="" style="endArrow=none;html=1;rounded=0;entryX=1;entryY=0.5;entryDx=0;entryDy=0;exitX=0;exitY=0.5;exitDx=0;exitDy=0;" parent="1" source="PxvKYDBfWrlnJJbrTDXg-158" target="xORFpnPC-fu5SrFgAWwJ-137" edge="1">
          <mxGeometry width="50" height="50" relative="1" as="geometry">
            <mxPoint x="1042" y="1247" as="sourcePoint" />
            <mxPoint x="1092" y="1197" as="targetPoint" />
          </mxGeometry>
        </mxCell>
        <mxCell id="PxvKYDBfWrlnJJbrTDXg-160" value="S/N" style="ellipse;whiteSpace=wrap;html=1;fontStyle=0" parent="1" vertex="1">
          <mxGeometry x="607" y="1070" width="70" height="45" as="geometry" />
        </mxCell>
        <mxCell id="PxvKYDBfWrlnJJbrTDXg-161" value="" style="endArrow=none;html=1;rounded=0;entryX=0.5;entryY=0;entryDx=0;entryDy=0;exitX=0.5;exitY=1;exitDx=0;exitDy=0;" parent="1" source="xORFpnPC-fu5SrFgAWwJ-74" target="PxvKYDBfWrlnJJbrTDXg-160" edge="1">
          <mxGeometry width="50" height="50" relative="1" as="geometry">
            <mxPoint x="652" y="1057" as="sourcePoint" />
            <mxPoint x="892" y="1197" as="targetPoint" />
          </mxGeometry>
        </mxCell>
        <mxCell id="PxvKYDBfWrlnJJbrTDXg-163" value="" style="endArrow=none;html=1;rounded=0;entryX=1;entryY=1;entryDx=0;entryDy=0;exitX=0;exitY=0.5;exitDx=0;exitDy=0;" parent="1" source="xORFpnPC-fu5SrFgAWwJ-89" target="xORFpnPC-fu5SrFgAWwJ-30" edge="1">
          <mxGeometry width="50" height="50" relative="1" as="geometry">
            <mxPoint x="807" y="605" as="sourcePoint" />
            <mxPoint x="967" y="495" as="targetPoint" />
          </mxGeometry>
        </mxCell>
        <mxCell id="PxvKYDBfWrlnJJbrTDXg-164" value="" style="endArrow=none;html=1;rounded=0;entryX=1;entryY=0;entryDx=0;entryDy=0;exitX=0;exitY=0.5;exitDx=0;exitDy=0;" parent="1" source="xORFpnPC-fu5SrFgAWwJ-125" target="xORFpnPC-fu5SrFgAWwJ-30" edge="1">
          <mxGeometry width="50" height="50" relative="1" as="geometry">
            <mxPoint x="917" y="545" as="sourcePoint" />
            <mxPoint x="967" y="495" as="targetPoint" />
          </mxGeometry>
        </mxCell>
        <mxCell id="PxvKYDBfWrlnJJbrTDXg-166" value="Doenças Crônicas" style="ellipse;whiteSpace=wrap;html=1;fontStyle=0" parent="1" vertex="1">
          <mxGeometry x="916" y="572" width="70" height="45" as="geometry" />
        </mxCell>
        <mxCell id="PxvKYDBfWrlnJJbrTDXg-167" value="Tipo" style="ellipse;whiteSpace=wrap;html=1;fontStyle=0" parent="1" vertex="1">
          <mxGeometry x="1003" y="523" width="70" height="45" as="geometry" />
        </mxCell>
        <mxCell id="PxvKYDBfWrlnJJbrTDXg-168" value="Severidade" style="ellipse;whiteSpace=wrap;html=1;fontStyle=0" parent="1" vertex="1">
          <mxGeometry x="1006" y="572" width="70" height="45" as="geometry" />
        </mxCell>
        <mxCell id="PxvKYDBfWrlnJJbrTDXg-169" value="Deficiência" style="ellipse;whiteSpace=wrap;html=1;fontStyle=0" parent="1" vertex="1">
          <mxGeometry x="917" y="620" width="70" height="45" as="geometry" />
        </mxCell>
        <mxCell id="PxvKYDBfWrlnJJbrTDXg-170" value="Tipo" style="ellipse;whiteSpace=wrap;html=1;fontStyle=0" parent="1" vertex="1">
          <mxGeometry x="1009" y="668" width="70" height="45" as="geometry" />
        </mxCell>
        <mxCell id="PxvKYDBfWrlnJJbrTDXg-171" value="Severidade" style="ellipse;whiteSpace=wrap;html=1;fontStyle=0" parent="1" vertex="1">
          <mxGeometry x="1007" y="620" width="70" height="45" as="geometry" />
        </mxCell>
        <mxCell id="PxvKYDBfWrlnJJbrTDXg-179" value="" style="endArrow=none;html=1;rounded=0;entryX=0;entryY=0.5;entryDx=0;entryDy=0;exitX=0.5;exitY=0;exitDx=0;exitDy=0;" parent="1" source="PxvKYDBfWrlnJJbrTDXg-166" target="PxvKYDBfWrlnJJbrTDXg-167" edge="1">
          <mxGeometry width="50" height="50" relative="1" as="geometry">
            <mxPoint x="1005" y="612" as="sourcePoint" />
            <mxPoint x="1055" y="562" as="targetPoint" />
          </mxGeometry>
        </mxCell>
        <mxCell id="PxvKYDBfWrlnJJbrTDXg-180" value="" style="endArrow=none;html=1;rounded=0;entryX=1;entryY=0.5;entryDx=0;entryDy=0;exitX=0;exitY=0.5;exitDx=0;exitDy=0;" parent="1" source="PxvKYDBfWrlnJJbrTDXg-168" target="PxvKYDBfWrlnJJbrTDXg-166" edge="1">
          <mxGeometry width="50" height="50" relative="1" as="geometry">
            <mxPoint x="1005" y="612" as="sourcePoint" />
            <mxPoint x="1055" y="562" as="targetPoint" />
          </mxGeometry>
        </mxCell>
        <mxCell id="PxvKYDBfWrlnJJbrTDXg-181" value="" style="endArrow=none;html=1;rounded=0;entryX=0.5;entryY=1;entryDx=0;entryDy=0;exitX=0;exitY=0.5;exitDx=0;exitDy=0;" parent="1" source="PxvKYDBfWrlnJJbrTDXg-170" target="PxvKYDBfWrlnJJbrTDXg-169" edge="1">
          <mxGeometry width="50" height="50" relative="1" as="geometry">
            <mxPoint x="1005" y="612" as="sourcePoint" />
            <mxPoint x="1055" y="562" as="targetPoint" />
          </mxGeometry>
        </mxCell>
        <mxCell id="PxvKYDBfWrlnJJbrTDXg-182" value="" style="endArrow=none;html=1;rounded=0;entryX=1;entryY=0.5;entryDx=0;entryDy=0;exitX=0;exitY=0.5;exitDx=0;exitDy=0;" parent="1" source="PxvKYDBfWrlnJJbrTDXg-171" target="PxvKYDBfWrlnJJbrTDXg-169" edge="1">
          <mxGeometry width="50" height="50" relative="1" as="geometry">
            <mxPoint x="1005" y="612" as="sourcePoint" />
            <mxPoint x="1055" y="562" as="targetPoint" />
          </mxGeometry>
        </mxCell>
        <mxCell id="PxvKYDBfWrlnJJbrTDXg-185" value="" style="endArrow=none;html=1;rounded=0;entryX=1;entryY=0;entryDx=0;entryDy=0;exitX=0;exitY=0.5;exitDx=0;exitDy=0;" parent="1" source="PxvKYDBfWrlnJJbrTDXg-166" target="xORFpnPC-fu5SrFgAWwJ-89" edge="1">
          <mxGeometry width="50" height="50" relative="1" as="geometry">
            <mxPoint x="895" y="550.5" as="sourcePoint" />
            <mxPoint x="1135" y="555" as="targetPoint" />
          </mxGeometry>
        </mxCell>
        <mxCell id="PxvKYDBfWrlnJJbrTDXg-186" value="" style="endArrow=none;html=1;rounded=0;entryX=1;entryY=1;entryDx=0;entryDy=0;exitX=0;exitY=0.5;exitDx=0;exitDy=0;" parent="1" source="PxvKYDBfWrlnJJbrTDXg-169" target="xORFpnPC-fu5SrFgAWwJ-89" edge="1">
          <mxGeometry width="50" height="50" relative="1" as="geometry">
            <mxPoint x="895" y="608.5" as="sourcePoint" />
            <mxPoint x="865" y="610" as="targetPoint" />
          </mxGeometry>
        </mxCell>
        <mxCell id="PxvKYDBfWrlnJJbrTDXg-190" value="Para Doenças Cardiorrespiratórias" style="ellipse;whiteSpace=wrap;html=1;fontStyle=0" parent="1" vertex="1">
          <mxGeometry x="911" y="367" width="70" height="45" as="geometry" />
        </mxCell>
        <mxCell id="PxvKYDBfWrlnJJbrTDXg-191" value="Outro" style="ellipse;whiteSpace=wrap;html=1;fontStyle=0" parent="1" vertex="1">
          <mxGeometry x="910" y="416" width="70" height="45" as="geometry" />
        </mxCell>
        <mxCell id="PxvKYDBfWrlnJJbrTDXg-192" value="Severidade" style="ellipse;whiteSpace=wrap;html=1;fontStyle=0" parent="1" vertex="1">
          <mxGeometry x="1002" y="465" width="70" height="45" as="geometry" />
        </mxCell>
        <mxCell id="PxvKYDBfWrlnJJbrTDXg-194" value="Qual" style="ellipse;whiteSpace=wrap;html=1;fontStyle=0" parent="1" vertex="1">
          <mxGeometry x="1000" y="416" width="70" height="45" as="geometry" />
        </mxCell>
        <mxCell id="PxvKYDBfWrlnJJbrTDXg-195" value="Severidade" style="ellipse;whiteSpace=wrap;html=1;fontStyle=0" parent="1" vertex="1">
          <mxGeometry x="1003" y="317" width="70" height="45" as="geometry" />
        </mxCell>
        <mxCell id="PxvKYDBfWrlnJJbrTDXg-196" value="Qual" style="ellipse;whiteSpace=wrap;html=1;fontStyle=0" parent="1" vertex="1">
          <mxGeometry x="1001" y="367" width="70" height="45" as="geometry" />
        </mxCell>
        <mxCell id="PxvKYDBfWrlnJJbrTDXg-197" value="" style="endArrow=none;html=1;rounded=0;entryX=0;entryY=0.5;entryDx=0;entryDy=0;exitX=1;exitY=0;exitDx=0;exitDy=0;" parent="1" source="PxvKYDBfWrlnJJbrTDXg-190" target="PxvKYDBfWrlnJJbrTDXg-195" edge="1">
          <mxGeometry width="50" height="50" relative="1" as="geometry">
            <mxPoint x="865" y="542" as="sourcePoint" />
            <mxPoint x="915" y="492" as="targetPoint" />
          </mxGeometry>
        </mxCell>
        <mxCell id="PxvKYDBfWrlnJJbrTDXg-198" value="" style="endArrow=none;html=1;rounded=0;entryX=0;entryY=0.5;entryDx=0;entryDy=0;exitX=1;exitY=0.5;exitDx=0;exitDy=0;" parent="1" source="PxvKYDBfWrlnJJbrTDXg-190" target="PxvKYDBfWrlnJJbrTDXg-196" edge="1">
          <mxGeometry width="50" height="50" relative="1" as="geometry">
            <mxPoint x="915" y="472" as="sourcePoint" />
            <mxPoint x="965" y="422" as="targetPoint" />
          </mxGeometry>
        </mxCell>
        <mxCell id="PxvKYDBfWrlnJJbrTDXg-199" value="" style="endArrow=none;html=1;rounded=0;entryX=1;entryY=1;entryDx=0;entryDy=0;exitX=0;exitY=0.5;exitDx=0;exitDy=0;" parent="1" source="PxvKYDBfWrlnJJbrTDXg-192" target="PxvKYDBfWrlnJJbrTDXg-191" edge="1">
          <mxGeometry width="50" height="50" relative="1" as="geometry">
            <mxPoint x="865" y="542" as="sourcePoint" />
            <mxPoint x="915" y="492" as="targetPoint" />
          </mxGeometry>
        </mxCell>
        <mxCell id="PxvKYDBfWrlnJJbrTDXg-200" value="" style="endArrow=none;html=1;rounded=0;entryX=0;entryY=0.5;entryDx=0;entryDy=0;exitX=1;exitY=0.5;exitDx=0;exitDy=0;" parent="1" source="PxvKYDBfWrlnJJbrTDXg-191" target="PxvKYDBfWrlnJJbrTDXg-194" edge="1">
          <mxGeometry width="50" height="50" relative="1" as="geometry">
            <mxPoint x="865" y="542" as="sourcePoint" />
            <mxPoint x="915" y="492" as="targetPoint" />
          </mxGeometry>
        </mxCell>
        <mxCell id="PxvKYDBfWrlnJJbrTDXg-203" value="" style="endArrow=none;html=1;rounded=0;exitX=1;exitY=0;exitDx=0;exitDy=0;entryX=0;entryY=0.5;entryDx=0;entryDy=0;" parent="1" source="xORFpnPC-fu5SrFgAWwJ-125" target="PxvKYDBfWrlnJJbrTDXg-190" edge="1">
          <mxGeometry width="50" height="50" relative="1" as="geometry">
            <mxPoint x="805" y="415" as="sourcePoint" />
            <mxPoint x="895" y="412.5000000000002" as="targetPoint" />
          </mxGeometry>
        </mxCell>
        <mxCell id="PxvKYDBfWrlnJJbrTDXg-204" value="" style="endArrow=none;html=1;rounded=0;entryX=1;entryY=1;entryDx=0;entryDy=0;exitX=0;exitY=0.5;exitDx=0;exitDy=0;" parent="1" source="PxvKYDBfWrlnJJbrTDXg-191" target="xORFpnPC-fu5SrFgAWwJ-125" edge="1">
          <mxGeometry width="50" height="50" relative="1" as="geometry">
            <mxPoint x="895" y="478.5" as="sourcePoint" />
            <mxPoint x="995" y="485" as="targetPoint" />
          </mxGeometry>
        </mxCell>
        <mxCell id="PxvKYDBfWrlnJJbrTDXg-205" value="&lt;span style=&quot;background-color: transparent; color: light-dark(rgb(0, 0, 0), rgb(255, 255, 255));&quot;&gt;Sintomas físicos adversos&lt;/span&gt;" style="ellipse;whiteSpace=wrap;html=1;fontStyle=0" parent="1" vertex="1">
          <mxGeometry x="376" y="115" width="90" height="45" as="geometry" />
        </mxCell>
        <mxCell id="PxvKYDBfWrlnJJbrTDXg-206" value="Ingestão excessiva de Açucar" style="ellipse;whiteSpace=wrap;html=1;fontStyle=0" parent="1" vertex="1">
          <mxGeometry x="208" y="628" width="70" height="45" as="geometry" />
        </mxCell>
        <mxCell id="PxvKYDBfWrlnJJbrTDXg-207" value="Ingestão excessiva de Sal" style="ellipse;whiteSpace=wrap;html=1;fontStyle=0" parent="1" vertex="1">
          <mxGeometry x="208" y="685" width="70" height="45" as="geometry" />
        </mxCell>
        <mxCell id="PxvKYDBfWrlnJJbrTDXg-208" value="Outro" style="ellipse;whiteSpace=wrap;html=1;fontStyle=0" parent="1" vertex="1">
          <mxGeometry x="208" y="737" width="70" height="45" as="geometry" />
        </mxCell>
        <mxCell id="PxvKYDBfWrlnJJbrTDXg-209" value="Participação em Brigas" style="ellipse;whiteSpace=wrap;html=1;fontStyle=0" parent="1" vertex="1">
          <mxGeometry x="198" y="194" width="70" height="45" as="geometry" />
        </mxCell>
        <mxCell id="PxvKYDBfWrlnJJbrTDXg-210" value="Apoio Familiar" style="ellipse;whiteSpace=wrap;html=1;fontStyle=0" parent="1" vertex="1">
          <mxGeometry x="180" y="242" width="70" height="45" as="geometry" />
        </mxCell>
        <mxCell id="PxvKYDBfWrlnJJbrTDXg-211" value="Trauma Psicológicos" style="ellipse;whiteSpace=wrap;html=1;fontStyle=0" parent="1" vertex="1">
          <mxGeometry x="252" y="261" width="70" height="45" as="geometry" />
        </mxCell>
        <mxCell id="PxvKYDBfWrlnJJbrTDXg-213" value="S/N" style="ellipse;whiteSpace=wrap;html=1;fontStyle=0" parent="1" vertex="1">
          <mxGeometry x="386" y="361" width="70" height="45" as="geometry" />
        </mxCell>
        <mxCell id="PxvKYDBfWrlnJJbrTDXg-214" value="S/N" style="ellipse;whiteSpace=wrap;html=1;fontStyle=0" parent="1" vertex="1">
          <mxGeometry x="753" y="265" width="70" height="45" as="geometry" />
        </mxCell>
        <mxCell id="PxvKYDBfWrlnJJbrTDXg-215" value="" style="endArrow=none;html=1;rounded=0;entryX=0.5;entryY=1;entryDx=0;entryDy=0;exitX=0.5;exitY=0;exitDx=0;exitDy=0;" parent="1" source="PxvKYDBfWrlnJJbrTDXg-213" target="xORFpnPC-fu5SrFgAWwJ-146" edge="1">
          <mxGeometry width="50" height="50" relative="1" as="geometry">
            <mxPoint x="512" y="346" as="sourcePoint" />
            <mxPoint x="562" y="296" as="targetPoint" />
          </mxGeometry>
        </mxCell>
        <mxCell id="PxvKYDBfWrlnJJbrTDXg-223" value="" style="endArrow=none;html=1;rounded=0;entryX=0.5;entryY=1;entryDx=0;entryDy=0;exitX=0.5;exitY=0;exitDx=0;exitDy=0;" parent="1" source="xORFpnPC-fu5SrFgAWwJ-29" target="xORFpnPC-fu5SrFgAWwJ-87" edge="1">
          <mxGeometry width="50" height="50" relative="1" as="geometry">
            <mxPoint x="582" y="166" as="sourcePoint" />
            <mxPoint x="632" y="116" as="targetPoint" />
          </mxGeometry>
        </mxCell>
        <mxCell id="PxvKYDBfWrlnJJbrTDXg-224" value="" style="endArrow=none;html=1;rounded=0;exitX=0.5;exitY=0;exitDx=0;exitDy=0;entryX=0;entryY=1;entryDx=0;entryDy=0;" parent="1" source="xORFpnPC-fu5SrFgAWwJ-146" target="xORFpnPC-fu5SrFgAWwJ-29" edge="1">
          <mxGeometry width="50" height="50" relative="1" as="geometry">
            <mxPoint x="582" y="306" as="sourcePoint" />
            <mxPoint x="502" y="256" as="targetPoint" />
          </mxGeometry>
        </mxCell>
        <mxCell id="PxvKYDBfWrlnJJbrTDXg-225" value="" style="endArrow=none;html=1;rounded=0;entryX=0.724;entryY=0.948;entryDx=0;entryDy=0;entryPerimeter=0;exitX=0.5;exitY=0;exitDx=0;exitDy=0;" parent="1" source="xORFpnPC-fu5SrFgAWwJ-88" target="xORFpnPC-fu5SrFgAWwJ-29" edge="1">
          <mxGeometry width="50" height="50" relative="1" as="geometry">
            <mxPoint x="542" y="316" as="sourcePoint" />
            <mxPoint x="592" y="266" as="targetPoint" />
          </mxGeometry>
        </mxCell>
        <mxCell id="PxvKYDBfWrlnJJbrTDXg-226" value="" style="endArrow=none;html=1;rounded=0;exitX=1;exitY=0.5;exitDx=0;exitDy=0;entryX=0;entryY=0.5;entryDx=0;entryDy=0;" parent="1" source="xORFpnPC-fu5SrFgAWwJ-86" target="PxvKYDBfWrlnJJbrTDXg-214" edge="1">
          <mxGeometry width="50" height="50" relative="1" as="geometry">
            <mxPoint x="702" y="326" as="sourcePoint" />
            <mxPoint x="752" y="276" as="targetPoint" />
          </mxGeometry>
        </mxCell>
        <mxCell id="PxvKYDBfWrlnJJbrTDXg-227" value="" style="endArrow=none;html=1;rounded=0;exitX=1;exitY=0.5;exitDx=0;exitDy=0;entryX=0;entryY=0.5;entryDx=0;entryDy=0;" parent="1" source="xORFpnPC-fu5SrFgAWwJ-29" target="xORFpnPC-fu5SrFgAWwJ-85" edge="1">
          <mxGeometry width="50" height="50" relative="1" as="geometry">
            <mxPoint x="612" y="256" as="sourcePoint" />
            <mxPoint x="662" y="206" as="targetPoint" />
          </mxGeometry>
        </mxCell>
        <mxCell id="PxvKYDBfWrlnJJbrTDXg-228" value="" style="endArrow=none;html=1;rounded=0;entryX=0;entryY=0.5;entryDx=0;entryDy=0;exitX=1;exitY=0.5;exitDx=0;exitDy=0;" parent="1" source="xORFpnPC-fu5SrFgAWwJ-83" target="xORFpnPC-fu5SrFgAWwJ-29" edge="1">
          <mxGeometry width="50" height="50" relative="1" as="geometry">
            <mxPoint x="412" y="266" as="sourcePoint" />
            <mxPoint x="462" y="216" as="targetPoint" />
          </mxGeometry>
        </mxCell>
        <mxCell id="PxvKYDBfWrlnJJbrTDXg-229" value="" style="endArrow=none;html=1;rounded=0;entryX=0;entryY=1;entryDx=0;entryDy=0;exitX=1;exitY=0;exitDx=0;exitDy=0;" parent="1" source="xORFpnPC-fu5SrFgAWwJ-29" target="xORFpnPC-fu5SrFgAWwJ-91" edge="1">
          <mxGeometry width="50" height="50" relative="1" as="geometry">
            <mxPoint x="537" y="216" as="sourcePoint" />
            <mxPoint x="587" y="166" as="targetPoint" />
          </mxGeometry>
        </mxCell>
        <mxCell id="PxvKYDBfWrlnJJbrTDXg-232" value="Diabetes" style="ellipse;whiteSpace=wrap;html=1;fontStyle=0" parent="1" vertex="1">
          <mxGeometry x="708" y="60" width="70" height="45" as="geometry" />
        </mxCell>
        <mxCell id="PxvKYDBfWrlnJJbrTDXg-233" value="Severidade" style="ellipse;whiteSpace=wrap;html=1;fontStyle=0" parent="1" vertex="1">
          <mxGeometry x="751" y="164" width="70" height="45" as="geometry" />
        </mxCell>
        <mxCell id="PxvKYDBfWrlnJJbrTDXg-234" value="Qual" style="ellipse;whiteSpace=wrap;html=1;fontStyle=0" parent="1" vertex="1">
          <mxGeometry x="753" y="216" width="70" height="45" as="geometry" />
        </mxCell>
        <mxCell id="PxvKYDBfWrlnJJbrTDXg-240" value="Semanas" style="ellipse;whiteSpace=wrap;html=1;fontStyle=0" parent="1" vertex="1">
          <mxGeometry x="547" y="378.5" width="70" height="45" as="geometry" />
        </mxCell>
        <mxCell id="PxvKYDBfWrlnJJbrTDXg-241" value="S/N" style="ellipse;whiteSpace=wrap;html=1;fontStyle=0" parent="1" vertex="1">
          <mxGeometry x="632" y="357.5" width="70" height="45" as="geometry" />
        </mxCell>
        <mxCell id="PxvKYDBfWrlnJJbrTDXg-242" value="S/N" style="ellipse;whiteSpace=wrap;html=1;fontStyle=0" parent="1" vertex="1">
          <mxGeometry x="490" y="-5" width="70" height="45" as="geometry" />
        </mxCell>
        <mxCell id="PxvKYDBfWrlnJJbrTDXg-244" value="" style="endArrow=none;html=1;rounded=0;entryX=1;entryY=1;entryDx=0;entryDy=0;exitX=0;exitY=0.5;exitDx=0;exitDy=0;" parent="1" source="PxvKYDBfWrlnJJbrTDXg-234" target="xORFpnPC-fu5SrFgAWwJ-85" edge="1">
          <mxGeometry width="50" height="50" relative="1" as="geometry">
            <mxPoint x="772" y="266" as="sourcePoint" />
            <mxPoint x="822" y="216" as="targetPoint" />
          </mxGeometry>
        </mxCell>
        <mxCell id="PxvKYDBfWrlnJJbrTDXg-245" value="" style="endArrow=none;html=1;rounded=0;entryX=0;entryY=0.5;entryDx=0;entryDy=0;exitX=1;exitY=0;exitDx=0;exitDy=0;" parent="1" source="xORFpnPC-fu5SrFgAWwJ-85" target="PxvKYDBfWrlnJJbrTDXg-233" edge="1">
          <mxGeometry width="50" height="50" relative="1" as="geometry">
            <mxPoint x="772" y="266" as="sourcePoint" />
            <mxPoint x="822" y="216" as="targetPoint" />
          </mxGeometry>
        </mxCell>
        <mxCell id="PxvKYDBfWrlnJJbrTDXg-246" value="" style="endArrow=none;html=1;rounded=0;entryX=1;entryY=1;entryDx=0;entryDy=0;exitX=0;exitY=0;exitDx=0;exitDy=0;" parent="1" source="PxvKYDBfWrlnJJbrTDXg-241" target="xORFpnPC-fu5SrFgAWwJ-88" edge="1">
          <mxGeometry width="50" height="50" relative="1" as="geometry">
            <mxPoint x="632" y="416" as="sourcePoint" />
            <mxPoint x="682" y="366" as="targetPoint" />
          </mxGeometry>
        </mxCell>
        <mxCell id="PxvKYDBfWrlnJJbrTDXg-247" value="" style="endArrow=none;html=1;rounded=0;entryX=0.5;entryY=1;entryDx=0;entryDy=0;exitX=0.5;exitY=0;exitDx=0;exitDy=0;" parent="1" source="PxvKYDBfWrlnJJbrTDXg-240" target="xORFpnPC-fu5SrFgAWwJ-88" edge="1">
          <mxGeometry width="50" height="50" relative="1" as="geometry">
            <mxPoint x="632" y="416" as="sourcePoint" />
            <mxPoint x="682" y="366" as="targetPoint" />
          </mxGeometry>
        </mxCell>
        <mxCell id="PxvKYDBfWrlnJJbrTDXg-249" value="" style="endArrow=none;html=1;rounded=0;entryX=1;entryY=1;entryDx=0;entryDy=0;exitX=0;exitY=0.5;exitDx=0;exitDy=0;" parent="1" source="xORFpnPC-fu5SrFgAWwJ-86" target="xORFpnPC-fu5SrFgAWwJ-29" edge="1">
          <mxGeometry width="50" height="50" relative="1" as="geometry">
            <mxPoint x="662" y="276" as="sourcePoint" />
            <mxPoint x="712" y="226" as="targetPoint" />
          </mxGeometry>
        </mxCell>
        <mxCell id="PxvKYDBfWrlnJJbrTDXg-250" value="&lt;span style=&quot;color: rgb(0, 0, 0); font-family: Helvetica; font-size: 12px; font-style: normal; font-variant-ligatures: normal; font-variant-caps: normal; font-weight: 400; letter-spacing: normal; orphans: 2; text-align: center; text-indent: 0px; text-transform: none; widows: 2; word-spacing: 0px; -webkit-text-stroke-width: 0px; white-space: normal; background-color: rgb(251, 251, 251); text-decoration-thickness: initial; text-decoration-style: initial; text-decoration-color: initial; float: none; display: inline !important;&quot;&gt;Hipertensão&lt;/span&gt;" style="ellipse;whiteSpace=wrap;html=1;fontStyle=0" parent="1" vertex="1">
          <mxGeometry x="592" y="15" width="70" height="45" as="geometry" />
        </mxCell>
        <mxCell id="PxvKYDBfWrlnJJbrTDXg-251" value="" style="endArrow=none;html=1;rounded=0;entryX=0.5;entryY=1;entryDx=0;entryDy=0;exitX=0.5;exitY=0;exitDx=0;exitDy=0;" parent="1" source="xORFpnPC-fu5SrFgAWwJ-87" target="PxvKYDBfWrlnJJbrTDXg-242" edge="1">
          <mxGeometry width="50" height="50" relative="1" as="geometry">
            <mxPoint x="562" y="106" as="sourcePoint" />
            <mxPoint x="612" y="56" as="targetPoint" />
          </mxGeometry>
        </mxCell>
        <mxCell id="PxvKYDBfWrlnJJbrTDXg-252" value="Obesidade" style="ellipse;whiteSpace=wrap;html=1;fontStyle=0" parent="1" vertex="1">
          <mxGeometry x="702" y="113" width="70" height="45" as="geometry" />
        </mxCell>
        <mxCell id="PxvKYDBfWrlnJJbrTDXg-256" value="&lt;span style=&quot;color: rgb(0, 0, 0); font-family: Helvetica; font-size: 12px; font-style: normal; font-variant-ligatures: normal; font-variant-caps: normal; font-weight: 400; letter-spacing: normal; orphans: 2; text-align: center; text-indent: 0px; text-transform: none; widows: 2; word-spacing: 0px; -webkit-text-stroke-width: 0px; white-space: normal; background-color: rgb(251, 251, 251); text-decoration-thickness: initial; text-decoration-style: initial; text-decoration-color: initial; float: none; display: inline !important;&quot;&gt;Outro&lt;/span&gt;" style="ellipse;whiteSpace=wrap;html=1;fontStyle=0" parent="1" vertex="1">
          <mxGeometry x="671" y="15" width="70" height="45" as="geometry" />
        </mxCell>
        <mxCell id="PxvKYDBfWrlnJJbrTDXg-257" value="" style="endArrow=none;html=1;rounded=0;entryX=0;entryY=1;entryDx=0;entryDy=0;exitX=0.692;exitY=0.04;exitDx=0;exitDy=0;exitPerimeter=0;" parent="1" source="xORFpnPC-fu5SrFgAWwJ-91" target="PxvKYDBfWrlnJJbrTDXg-256" edge="1">
          <mxGeometry width="50" height="50" relative="1" as="geometry">
            <mxPoint x="640" y="110" as="sourcePoint" />
            <mxPoint x="792" y="86" as="targetPoint" />
          </mxGeometry>
        </mxCell>
        <mxCell id="PxvKYDBfWrlnJJbrTDXg-258" value="" style="endArrow=none;html=1;rounded=0;entryX=0;entryY=0.5;entryDx=0;entryDy=0;exitX=1;exitY=0;exitDx=0;exitDy=0;" parent="1" source="xORFpnPC-fu5SrFgAWwJ-91" target="PxvKYDBfWrlnJJbrTDXg-232" edge="1">
          <mxGeometry width="50" height="50" relative="1" as="geometry">
            <mxPoint x="690" y="90" as="sourcePoint" />
            <mxPoint x="792" y="86" as="targetPoint" />
          </mxGeometry>
        </mxCell>
        <mxCell id="PxvKYDBfWrlnJJbrTDXg-259" value="" style="endArrow=none;html=1;rounded=0;entryX=0;entryY=0.5;entryDx=0;entryDy=0;exitX=1;exitY=0.5;exitDx=0;exitDy=0;" parent="1" source="xORFpnPC-fu5SrFgAWwJ-91" target="PxvKYDBfWrlnJJbrTDXg-252" edge="1">
          <mxGeometry width="50" height="50" relative="1" as="geometry">
            <mxPoint x="726" y="58.5" as="sourcePoint" />
            <mxPoint x="792" y="86" as="targetPoint" />
          </mxGeometry>
        </mxCell>
        <mxCell id="PxvKYDBfWrlnJJbrTDXg-260" value="" style="endArrow=none;html=1;rounded=0;entryX=0.5;entryY=1;entryDx=0;entryDy=0;exitX=0.5;exitY=0;exitDx=0;exitDy=0;" parent="1" source="xORFpnPC-fu5SrFgAWwJ-91" target="PxvKYDBfWrlnJJbrTDXg-250" edge="1">
          <mxGeometry width="50" height="50" relative="1" as="geometry">
            <mxPoint x="666.2512626584708" y="42.59009742330272" as="sourcePoint" />
            <mxPoint x="792" y="86" as="targetPoint" />
          </mxGeometry>
        </mxCell>
        <mxCell id="PxvKYDBfWrlnJJbrTDXg-261" value="" style="endArrow=none;html=1;rounded=0;entryX=1;entryY=1;entryDx=0;entryDy=0;exitX=0;exitY=0;exitDx=0;exitDy=0;" parent="1" source="xORFpnPC-fu5SrFgAWwJ-29" target="PxvKYDBfWrlnJJbrTDXg-205" edge="1">
          <mxGeometry width="50" height="50" relative="1" as="geometry">
            <mxPoint x="452" y="216" as="sourcePoint" />
            <mxPoint x="502" y="166" as="targetPoint" />
          </mxGeometry>
        </mxCell>
        <mxCell id="PxvKYDBfWrlnJJbrTDXg-262" value="Outro" style="ellipse;whiteSpace=wrap;html=1;fontStyle=0" parent="1" vertex="1">
          <mxGeometry x="260" y="131" width="70" height="45" as="geometry" />
        </mxCell>
        <mxCell id="PxvKYDBfWrlnJJbrTDXg-263" value="Estresse" style="ellipse;whiteSpace=wrap;html=1;fontStyle=0" parent="1" vertex="1">
          <mxGeometry x="185" y="146" width="70" height="45" as="geometry" />
        </mxCell>
        <mxCell id="PxvKYDBfWrlnJJbrTDXg-264" value="Severidade" style="ellipse;whiteSpace=wrap;html=1;fontStyle=0" parent="1" vertex="1">
          <mxGeometry x="386" y="36" width="70" height="45" as="geometry" />
        </mxCell>
        <mxCell id="PxvKYDBfWrlnJJbrTDXg-265" value="Qual" style="ellipse;whiteSpace=wrap;html=1;fontStyle=0" parent="1" vertex="1">
          <mxGeometry x="306" y="51" width="70" height="45" as="geometry" />
        </mxCell>
        <mxCell id="PxvKYDBfWrlnJJbrTDXg-266" value="" style="endArrow=none;html=1;rounded=0;entryX=1;entryY=1;entryDx=0;entryDy=0;exitX=0;exitY=0;exitDx=0;exitDy=0;" parent="1" source="PxvKYDBfWrlnJJbrTDXg-205" target="PxvKYDBfWrlnJJbrTDXg-265" edge="1">
          <mxGeometry width="50" height="50" relative="1" as="geometry">
            <mxPoint x="452" y="176" as="sourcePoint" />
            <mxPoint x="502" y="126" as="targetPoint" />
          </mxGeometry>
        </mxCell>
        <mxCell id="PxvKYDBfWrlnJJbrTDXg-267" value="" style="endArrow=none;html=1;rounded=0;entryX=0.5;entryY=1;entryDx=0;entryDy=0;exitX=0.5;exitY=0;exitDx=0;exitDy=0;" parent="1" source="PxvKYDBfWrlnJJbrTDXg-205" target="PxvKYDBfWrlnJJbrTDXg-264" edge="1">
          <mxGeometry width="50" height="50" relative="1" as="geometry">
            <mxPoint x="452" y="176" as="sourcePoint" />
            <mxPoint x="502" y="126" as="targetPoint" />
          </mxGeometry>
        </mxCell>
        <mxCell id="PxvKYDBfWrlnJJbrTDXg-269" value="" style="endArrow=none;html=1;rounded=0;exitX=1;exitY=0;exitDx=0;exitDy=0;entryX=0.5;entryY=1;entryDx=0;entryDy=0;" parent="1" source="PxvKYDBfWrlnJJbrTDXg-211" target="xORFpnPC-fu5SrFgAWwJ-83" edge="1">
          <mxGeometry width="50" height="50" relative="1" as="geometry">
            <mxPoint x="342" y="266" as="sourcePoint" />
            <mxPoint x="392" y="216" as="targetPoint" />
          </mxGeometry>
        </mxCell>
        <mxCell id="PxvKYDBfWrlnJJbrTDXg-270" value="" style="endArrow=none;html=1;rounded=0;entryX=1;entryY=1;entryDx=0;entryDy=0;exitX=0.5;exitY=0;exitDx=0;exitDy=0;" parent="1" source="xORFpnPC-fu5SrFgAWwJ-83" target="PxvKYDBfWrlnJJbrTDXg-262" edge="1">
          <mxGeometry width="50" height="50" relative="1" as="geometry">
            <mxPoint x="342" y="266" as="sourcePoint" />
            <mxPoint x="392" y="216" as="targetPoint" />
          </mxGeometry>
        </mxCell>
        <mxCell id="PxvKYDBfWrlnJJbrTDXg-271" value="" style="endArrow=none;html=1;rounded=0;exitX=1;exitY=0.5;exitDx=0;exitDy=0;entryX=0;entryY=0.5;entryDx=0;entryDy=0;" parent="1" source="PxvKYDBfWrlnJJbrTDXg-209" target="xORFpnPC-fu5SrFgAWwJ-83" edge="1">
          <mxGeometry width="50" height="50" relative="1" as="geometry">
            <mxPoint x="342" y="266" as="sourcePoint" />
            <mxPoint x="392" y="216" as="targetPoint" />
          </mxGeometry>
        </mxCell>
        <mxCell id="PxvKYDBfWrlnJJbrTDXg-272" value="" style="endArrow=none;html=1;rounded=0;exitX=1;exitY=0.5;exitDx=0;exitDy=0;entryX=0;entryY=1;entryDx=0;entryDy=0;" parent="1" source="PxvKYDBfWrlnJJbrTDXg-210" target="xORFpnPC-fu5SrFgAWwJ-83" edge="1">
          <mxGeometry width="50" height="50" relative="1" as="geometry">
            <mxPoint x="342" y="266" as="sourcePoint" />
            <mxPoint x="392" y="216" as="targetPoint" />
          </mxGeometry>
        </mxCell>
        <mxCell id="PxvKYDBfWrlnJJbrTDXg-273" value="" style="endArrow=none;html=1;rounded=0;exitX=1;exitY=0.5;exitDx=0;exitDy=0;entryX=0;entryY=0;entryDx=0;entryDy=0;" parent="1" source="PxvKYDBfWrlnJJbrTDXg-263" target="xORFpnPC-fu5SrFgAWwJ-83" edge="1">
          <mxGeometry width="50" height="50" relative="1" as="geometry">
            <mxPoint x="342" y="266" as="sourcePoint" />
            <mxPoint x="392" y="216" as="targetPoint" />
          </mxGeometry>
        </mxCell>
        <mxCell id="PxvKYDBfWrlnJJbrTDXg-274" value="Cobertura" style="ellipse;whiteSpace=wrap;html=1;fontStyle=0" parent="1" vertex="1">
          <mxGeometry x="-47" y="1101" width="70" height="45" as="geometry" />
        </mxCell>
        <mxCell id="PxvKYDBfWrlnJJbrTDXg-275" value="" style="endArrow=none;html=1;rounded=0;entryX=0.5;entryY=1;entryDx=0;entryDy=0;exitX=1;exitY=0.5;exitDx=0;exitDy=0;" parent="1" source="PxvKYDBfWrlnJJbrTDXg-274" target="xORFpnPC-fu5SrFgAWwJ-51" edge="1">
          <mxGeometry width="50" height="50" relative="1" as="geometry">
            <mxPoint x="7" y="1198" as="sourcePoint" />
            <mxPoint x="57" y="1148" as="targetPoint" />
          </mxGeometry>
        </mxCell>
        <mxCell id="PxvKYDBfWrlnJJbrTDXg-276" value="Valor" style="ellipse;whiteSpace=wrap;html=1;fontStyle=0" parent="1" vertex="1">
          <mxGeometry x="313" y="1142" width="70" height="45" as="geometry" />
        </mxCell>
        <mxCell id="PxvKYDBfWrlnJJbrTDXg-277" value="" style="endArrow=none;html=1;rounded=0;entryX=1;entryY=0.5;entryDx=0;entryDy=0;exitX=0;exitY=0.5;exitDx=0;exitDy=0;" parent="1" source="PxvKYDBfWrlnJJbrTDXg-276" target="PxvKYDBfWrlnJJbrTDXg-120" edge="1">
          <mxGeometry width="50" height="50" relative="1" as="geometry">
            <mxPoint x="181" y="1198" as="sourcePoint" />
            <mxPoint x="231" y="1148" as="targetPoint" />
          </mxGeometry>
        </mxCell>
        <mxCell id="yp2PRoDkdTtt_5Uzxo_Q-1" value="Raça/Cor" style="ellipse;whiteSpace=wrap;html=1;fontStyle=0" parent="1" vertex="1">
          <mxGeometry x="679" y="640" width="90" height="45" as="geometry" />
        </mxCell>
        <mxCell id="yp2PRoDkdTtt_5Uzxo_Q-2" value="Área Urbana ou Rural" style="ellipse;whiteSpace=wrap;html=1;fontStyle=0" parent="1" vertex="1">
          <mxGeometry x="373" y="1038.5" width="70" height="45" as="geometry" />
        </mxCell>
        <mxCell id="yp2PRoDkdTtt_5Uzxo_Q-3" value="" style="endArrow=none;html=1;rounded=0;entryX=0;entryY=0.5;entryDx=0;entryDy=0;exitX=1;exitY=1;exitDx=0;exitDy=0;" parent="1" source="xORFpnPC-fu5SrFgAWwJ-53" target="yp2PRoDkdTtt_5Uzxo_Q-2" edge="1">
          <mxGeometry width="50" height="50" relative="1" as="geometry">
            <mxPoint x="291" y="1038" as="sourcePoint" />
            <mxPoint x="341" y="988" as="targetPoint" />
          </mxGeometry>
        </mxCell>
      </root>
    </mxGraphModel>
  </diagram>
</mxfile>
